<?xml version="1.0" encoding="UTF-8"?>
<svg id="Icons" xmlns="http://www.w3.org/2000/svg" viewBox="0 0 2000 2000">
  <defs>
    <style>
      .cls-1 {
        fill: #fff;
      }

      .cls-2 {
        fill: #6d6e71;
      }

      .cls-3 {
        fill: #e87826;
      }

      .cls-4 {
        fill: #f8981d;
      }

      .cls-5 {
        fill: #285888;
      }
    </style>
  </defs>
  <g id="Blender_Logo">
    <circle class="cls-2" cx="1000" cy="1000" r="1000"/>
    <circle class="cls-1" cx="1000" cy="1000" r="979.28"/>
    <circle class="cls-4" cx="1000" cy="1000" r="924.34"/>
    <g>
      <path class="cls-1" d="M1324.37,1542.41c-31.52-168.5-63.07-337-94.58-505.5-7.14-38.17-35.41-62.7-72.81-62.73-101.18-.06-202.37-.07-303.55,0-36.83.03-65.34,24.81-72.3,62.21-10.78,57.97-21.69,115.91-32.53,173.86-20.79,111.19-41.79,222.33-62.26,333.58-7.78,42.28,16.2,78.54,56.67,87.7,2.05.46,4.01,1.34,6.45,2.17,0,2.83-.03,5.37,0,7.91.22,18.17,8.08,26.16,25.82,26.23,8.41.03,16.82.13,25.22-.04,13.07-.27,21.53-8.35,22.85-21.75.4-4.05.4-8.14.59-12.51h363.33c0,3.43-.08,6.29.01,9.14.55,16.72,8.9,25.03,25.29,25.15,5.6.04,11.21.01,16.81.01,25.9,0,30.69-4.72,32.05-31.51.05-.94.37-1.86.61-2.98,1.75-.58,3.48-1.3,5.28-1.73,41.72-9.89,65.05-46.33,57.03-89.22Z"/>
      <path class="cls-1" d="M1389.51,522.85c0-17.42-6.93-27-23.78-33.16-28.12-10.28-56.08-21.02-84.5-30.51-9.09-3.04-10.45-7.41-9.42-15.28,2.7-20.66,4.53-41.43,7.26-62.09,1.22-9.22-1.78-13.56-11.74-15.65-28.18-5.91-56.1-12.92-84.19-19.23-4.61-1.03-6.93-2.22-7.21-7.41-1.38-25.53-15.76-38.25-42.57-38.35-5.08-.02-10.17,0-15.25,0h-44.38c0-10.26.12-19.26-.02-28.26-.29-18.56-12.09-29.69-31.74-29.77-28.59-.11-57.19-.08-85.78,0-20.67.06-32.57,11.18-32.94,30.74-.17,8.7-.03,17.4-.03,27.29-22.22,0-42.83-.18-63.44.05-23.19.26-39.74,15.07-40.98,36.97-.31,5.52-2.01,7.73-7.75,9.02-26.85,6.05-53.56,12.64-80.34,18.99-12.86,3.05-13.35,3.14-12,15.89,8.37,79.29,16.85,158.56,25.43,237.82,8.55,78.96,17.57,157.88,25.79,236.88,5.94,57.09,46.75,101.63,105.74,113.83,6.42,1.33,12.95,2.2,19.16,3.24,3.91,19.81,11.91,26.12,32.65,26.13,50.2.03,100.39.02,150.59.01,24.23,0,30.59-4.85,35.83-27.25.24-.19.46-.5.74-.56,1.23-.28,2.48-.47,3.72-.72,48.72-9.88,82.46-36.7,101.39-80.57,1.69-3.92,5.1-7.55,8.56-10.36,48.35-39.18,96.72-78.34,145.41-117.12,11.15-8.88,16.02-19.25,15.96-33.03-.33-69.17-.13-138.35-.17-207.52Z"/>
    </g>
    <g>
      <path class="cls-3" d="M1242.31,1589.78c-.22,1-.52,1.83-.56,2.67-1.25,23.97-5.68,28.19-29.58,28.19-5.17,0-10.35.03-15.52-.01-15.12-.11-22.84-7.54-23.34-22.5-.09-2.55-.01-5.1-.01-8.17h-335.38c-.18,3.91-.18,7.57-.54,11.19-1.22,11.99-9.02,19.22-21.09,19.46-7.76.15-15.52.06-23.28.03-16.38-.06-23.63-7.21-23.84-23.46-.03-2.27,0-4.55,0-7.08-2.25-.74-4.06-1.53-5.96-1.94-37.36-8.2-59.49-40.64-52.31-78.46,18.89-99.53,38.28-198.97,57.47-298.44,10.01-51.85,20.07-103.69,30.02-155.55,6.42-33.46,32.74-55.63,66.73-55.65,93.4-.07,186.8-.06,280.2,0,34.52.02,60.62,21.97,67.21,56.12,29.09,150.75,58.21,301.5,87.31,452.25,7.41,38.37-14.13,70.98-52.64,79.82-1.66.38-3.26,1.03-4.87,1.55ZM1002.63,1503.61c31.6-.2,58.69-8.04,82.33-26.23,46.56-35.84,48.5-95.6,4.47-134.42-46.97-41.41-127.69-39.44-172.68,4.2-36,34.92-36.31,86.56-.37,121.8,24.43,23.96,54.64,33.79,86.25,34.65Z"/>
      <path class="cls-3" d="M931.73,316.73c0-9.41-.13-17.69.03-25.97.34-18.61,11.1-29.18,29.8-29.24,25.86-.08,51.73-.1,77.59,0,17.77.07,28.45,10.66,28.71,28.32.13,8.56.02,17.13.02,26.89,13.94,0,27.05,0,40.15,0,4.6,0,9.2-.02,13.79,0,24.25.1,37.26,12.2,38.5,36.49.25,4.94,2.36,6.07,6.52,7.05,25.41,6,50.66,12.67,76.15,18.29,9.01,1.99,11.72,6.11,10.62,14.89-2.47,19.66-4.12,39.41-6.57,59.07-.93,7.49.3,11.65,8.52,14.54,25.7,9.04,50.99,19.24,76.43,29.03,15.24,5.86,21.5,14.98,21.51,31.55.03,65.81-.15,131.63.15,197.44.06,13.1-4.34,22.97-14.43,31.42-44.04,36.9-87.79,74.16-131.53,111.43-3.14,2.67-6.21,6.12-7.75,9.85-17.12,41.75-47.64,67.26-91.71,76.66-1.12.24-2.25.42-3.36.68-.25.06-.45.35-.67.53-4.75,21.32-10.5,25.93-32.41,25.93-45.41,0-90.81.02-136.22-.01-18.76-.01-26-6.01-29.53-24.86-5.61-.99-11.52-1.82-17.33-3.08-53.35-11.61-90.27-53.98-95.64-108.3-7.43-75.16-15.59-150.24-23.33-225.37-7.76-75.41-15.44-150.84-23.01-226.27-1.22-12.13-.78-12.22,10.85-15.12,24.22-6.04,48.38-12.31,72.67-18.06,5.19-1.23,6.73-3.33,7.01-8.58,1.13-20.84,16.1-34.93,37.07-35.17,18.64-.22,37.29-.05,57.38-.05ZM764.25,428.42c0,3.52-.23,6.1.03,8.62,6.64,63.97,13.37,127.94,20,191.91,7.51,72.55,14.72,145.13,22.46,217.65,5.96,55.9,51.16,96.23,107.41,96.34,56.89.11,113.79.19,170.68-.14,9.95-.06,20.22-1.03,29.76-3.68,35.61-9.92,61.14-32.39,72.59-67.43,6.15-18.82,7.37-39.4,9.62-59.32,4.63-40.8,8.39-81.69,12.62-122.54,7.77-75.12,15.64-150.23,23.43-225.34,1.23-11.84,2.24-23.71,3.41-36.07h-472.02ZM1211.11,804.42c31.18-25.87,60.45-49.88,89.27-74.42,3.48-2.97,6.43-8.75,6.46-13.25.43-57.45.48-114.92-.07-172.37-.05-4.79-3.97-12.24-7.95-13.85-18.44-7.44-37.54-13.25-57.48-20.02-10.1,98.18-20.05,194.88-30.23,293.91ZM1245.39,477.11c-.7,3.68-1.02,6.23-1.68,8.7-2.27,8.55.81,12.76,9.56,15.12,14.66,3.95,28.97,9.22,43.41,14,17.11,5.65,23.72,14.57,23.73,32.43.05,55.48-.06,110.96.07,166.44.03,11.74-4.07,20.9-13.29,28.44-29.38,24-57.92,49.06-87.9,72.25-12.76,9.87-11.18,21.82-12.45,35.43,2.16-1.23,2.96-1.53,3.57-2.05,41.23-34.92,82.52-69.75,123.48-104.98,3.27-2.81,5.93-8.33,5.95-12.6.37-68.41.27-136.83.24-205.24,0-7.37-3.48-12.76-10.33-15.42-27.8-10.81-55.66-21.46-84.38-32.5ZM1089.79,956.88h-169.7c.73,8.97,5.77,11.57,13.37,11.55,27.26-.07,54.51,0,81.77,0,20.37,0,40.74-.02,61.11,0,7.41,0,12.83-2.3,13.46-11.56Z"/>
      <path class="cls-1" d="M1002.63,1503.61c-31.61-.86-61.82-10.68-86.25-34.65-35.93-35.24-35.63-86.88.37-121.8,44.99-43.65,125.71-45.61,172.68-4.2,44.03,38.81,42.09,98.58-4.47,134.42-23.63,18.19-50.73,26.03-82.33,26.23ZM1065.97,1408.6c.12-33.97-26.35-60.71-60.28-60.87-33.95-.16-60.69,26.33-60.84,60.28-.15,33.97,26.38,60.79,60.25,60.89,33.97.1,60.75-26.43,60.87-60.3Z"/>
      <path class="cls-1" d="M764.25,428.42h472.02c-1.16,12.36-2.18,24.22-3.41,36.07-7.79,75.12-15.65,150.23-23.43,225.34-4.23,40.84-7.99,81.74-12.62,122.54-2.26,19.92-3.48,40.5-9.62,59.32-11.44,35.04-36.98,57.51-72.59,67.43-9.54,2.66-19.82,3.62-29.76,3.68-56.89.34-113.79.25-170.68.14-56.25-.11-101.45-40.44-107.41-96.34-7.74-72.52-14.95-145.1-22.46-217.65-6.62-63.98-13.36-127.94-20-191.91-.26-2.52-.03-5.1-.03-8.62ZM805.38,544.34c2.52,21.32,4.9,42.05,7.43,62.76,9.07,74.36,18.39,148.7,27.19,223.09,2.6,22.01,6.02,43.18,23.22,59.47,19.42,18.39,42.74,26.46,68.93,26.63,45.39.28,90.79.37,136.18-.15,10.48-.12,21.34-1.69,31.3-4.87,29.46-9.43,51.57-27.49,57.13-59.41,4.87-27.96,7.25-56.36,10.71-84.56,6.66-54.42,13.31-108.85,19.95-163.27,2.41-19.79,4.78-39.59,7.21-59.69h-389.25Z"/>
      <path class="cls-1" d="M1211.11,804.42c10.19-99.02,20.13-195.73,30.23-293.91,19.95,6.76,39.04,12.57,57.48,20.02,3.98,1.61,7.9,9.06,7.95,13.85.54,57.45.5,114.91.07,172.37-.03,4.5-2.98,10.29-6.46,13.25-28.83,24.54-58.1,48.56-89.27,74.42Z"/>
      <path class="cls-1" d="M1245.39,477.11c28.72,11.04,56.58,21.69,84.38,32.5,6.85,2.66,10.32,8.06,10.33,15.42.03,68.41.13,136.83-.24,205.24-.02,4.27-2.69,9.79-5.95,12.6-40.96,35.23-82.26,70.06-123.48,104.98-.61.52-1.41.83-3.57,2.05,1.27-13.61-.32-25.56,12.45-35.43,29.99-23.19,58.53-48.26,87.9-72.25,9.22-7.53,13.32-16.7,13.29-28.44-.13-55.48-.02-110.96-.07-166.44-.02-17.86-6.62-26.77-23.73-32.43-14.44-4.77-28.75-10.05-43.41-14-8.75-2.36-11.83-6.57-9.56-15.12.66-2.47.98-5.02,1.68-8.7Z"/>
      <path class="cls-1" d="M1089.79,956.88c-.63,9.26-6.04,11.57-13.46,11.56-20.37-.02-40.74,0-61.11,0-27.26,0-54.51-.07-81.77,0-7.6.02-12.64-2.58-13.37-11.55h169.7Z"/>
      <path class="cls-5" d="M1065.97,1408.6c-.12,33.88-26.9,60.41-60.87,60.3-33.86-.1-60.4-26.93-60.25-60.89.15-33.95,26.89-60.44,60.84-60.28,33.92.16,60.4,26.9,60.28,60.87Z"/>
      <path class="cls-5" d="M805.38,544.34h389.25c-2.43,20.1-4.8,39.9-7.21,59.69-6.64,54.43-13.29,108.85-19.95,163.27-3.45,28.21-5.84,56.6-10.71,84.56-5.56,31.92-27.67,49.98-57.13,59.41-9.96,3.19-20.82,4.76-31.3,4.87-45.39.52-90.79.43-136.18.15-26.19-.16-49.51-8.24-68.93-26.63-17.2-16.29-20.62-37.46-23.22-59.47-8.8-74.4-18.11-148.73-27.19-223.09-2.53-20.71-4.91-41.44-7.43-62.76Z"/>
    </g>
  </g>
</svg>