<?xml version="1.0" encoding="UTF-8"?>
<svg id="Icons" xmlns="http://www.w3.org/2000/svg" viewBox="0 0 2000 2000">
  <defs>
    <style>
      .cls-1 {
        fill: #51b956;
      }

      .cls-2 {
        fill: #59bb5f;
      }

      .cls-3 {
        fill: #1672b5;
      }

      .cls-4 {
        fill: #1778b4;
      }

      .cls-5 {
        fill: #0f559c;
      }

      .cls-6 {
        fill: #69bf69;
      }

      .cls-7 {
        fill: #218ccb;
      }

      .cls-8 {
        fill: #f47f44;
      }

      .cls-9 {
        fill: #3082c4;
      }

      .cls-10 {
        fill: #50be9f;
      }

      .cls-11 {
        fill: #2f7abf;
      }

      .cls-12 {
        fill: #35c1da;
      }

      .cls-13 {
        fill: #fed9b4;
      }

      .cls-14 {
        fill: #197fb8;
      }

      .cls-15 {
        fill: #1b83c0;
      }

      .cls-16 {
        fill: #114d8a;
      }

      .cls-17 {
        fill: #154983;
      }

      .cls-18 {
        fill: #60c08a;
      }

      .cls-19 {
        fill: #49bfb0;
      }

      .cls-20 {
        fill: #4dba75;
      }

      .cls-21 {
        fill: #34c1d2;
      }

      .cls-22 {
        fill: #39c0c3;
      }

      .cls-23 {
        fill: #674636;
      }

      .cls-24 {
        fill: #6ec17a;
      }

      .cls-25 {
        fill: #ee5c3e;
      }

      .cls-26 {
        fill: #2d91cf;
      }

      .cls-27 {
        fill: #3cc0e7;
      }

      .cls-28 {
        fill: #115093;
      }

      .cls-29 {
        fill: #fbbb9a;
      }

      .cls-30 {
        fill: #7ac36c;
      }

      .cls-31 {
        fill: #57bf94;
      }

      .cls-32 {
        fill: #043a72;
        opacity: .5;
      }

      .cls-33 {
        fill: #674535;
      }

      .cls-34 {
        fill: #f69682;
      }

      .cls-35 {
        fill: #1370a6;
      }

      .cls-36 {
        fill: #43bfb7;
      }

      .cls-37 {
        fill: #414042;
      }

      .cls-38 {
        fill: #815841;
      }
    </style>
  </defs>
  <g id="Browser_Logo">
    <g>
      <circle class="cls-37" cx="1000" cy="1000" r="1000"/>
      <path class="cls-11" d="M854.47,1858.61c-48.95-27.56-93.43-61.07-132.24-101.58-50.01-52.22-90.34-110.96-119.51-177.6-24.31-55.53-40.84-113.01-47.64-172.92-1-8.76-1.69-17.56-2.2-26.38-.38-6.61-.65-13.24-.86-19.87-.07-2.21-.13-4.42-.19-6.64-.46-17.7-.6-35.44-1.27-53.12-.26-.1-.53-.19-.79-.28-.06-.02-.11-.04-.17-.06-.52-.17-1.06-.32-1.6-.48-.24-.07-.48-.14-.72-.21-.9-.27-1.79-.56-2.59-.94-.59-.29-1.14-.62-1.61-1.05-15.36-13.77-30.49-27.8-45.7-41.74-37.33-34.21-74.72-68.36-111.98-102.65-19.1-17.58-37.85-35.54-56.99-53.08-34.79-31.88-69.83-63.5-104.62-95.37-19.14-17.54-38.13-35.25-56.89-53.19-5.15-4.92-11.07-10.29-13.36-16.63-3.14-8.69,6.8-12.23,11.03-18.04.91-1.26,2.29-2.68,2.28-4.02,0-10.53,6.88-16.81,13.7-23.28,1.23-1.17,2.76-3.75,2.27-4.75-4.45-9.09,3.33-12.63,7.33-18.23,2.55-3.58,2.77-8.74,4.69-12.89,1.9-4.11,3.76-9.07,7.18-11.46,5.65-3.95,10.26-6.95,9.95-15.2-.13-3.5,4.15-7.94,7.5-10.63,5.42-4.36,8.47-8.39,6.22-15.96-.81-2.73,1.69-7.64,4.17-9.94,10.47-9.68,24.95-16.88,31.27-28.6,5.36-9.94,14.25-15.87,18.84-24.51,4.78-9,10.9-14.06,18.6-19.57,11.64-8.32,21.94-18.5,32.98-27.67,2.6-2.16,6.25-3.06,8.82-5.25,4.06-3.46,7.56-7.57,11.38-11.31,2.17-2.12,4.33-4.33,6.81-6.03,1.22-.83,2.45-1.64,3.69-2.44,2.48-1.6,5-3.14,7.52-4.68,1.26-.77,2.52-1.55,3.77-2.33,1.25-1.23,2.43-2.55,3.63-3.86.8-.87,1.6-1.73,2.44-2.55.83-.81,1.69-1.58,2.61-2.27.46-.34.92-.67,1.41-.96,6.18-3.79,12.86-5.21,13.49-15.42.27-4.42,9.49-9.62,15.61-12.07,11.1-4.44,22.91-7.08,34.43-10.46-.12-1.4-.25-2.79-.37-4.19-3.78-.21-8.07-1.69-11.23-.39-10.44,4.29-21.03,4.42-31.88,3.19-7.72,2.3-15.86,3.72-23.09,7.08-13.86,6.45-27.57,13.41-40.68,21.25-14.41,8.61-28.61,17.75-41.98,27.89-29.28,22.2-58.02,45.11-86.85,67.9-2.31,1.82-3.72,4.85-5.34,7.44-.99,1.58-1.21,3.73-2.41,5.05-10.22,11.33-22.07,21.53-30.49,34.05-8.35,12.42-24.13,19.7-25.76,36.71-.06.58-.46,1.17-.83,1.66-8.29,10.93-17.33,21.38-24.68,32.91-7.06,11.08-16.41,21.66-21.21,32.77-5.02,11.61-12.33,20.32-19.16,30.01-6.38,9.05-12.7,18.14-19.08,27.19-1.21,19.52-1.83,39.21-1.83,59.04,0,518.99,420.73,939.72,939.72,939.72,41.25,0,81.87-2.67,121.71-7.82-1.05-.02-2.11-.03-3.16-.05-94.29-1.86-182.07-27.06-264.08-73.24Z"/>
      <path class="cls-27" d="M170.34,675.37c.96.18,1.92.39,2.88.61,1.3.3,2.6.61,3.9.88,20.23-17.6,40.46-35.2,60.7-52.81,18.17-14.3,37.08-27.27,56.65-39.05,32.62-19.63,67.07-35.94,103.01-49.61,42.58-16.2,86.32-28.46,131.36-34.91,30.27-4.33,60.9-7.14,91.46-8.2,82.12-2.84,162.17,9.9,240.29,35.17,1.47.48,3.08.54,4.62.8,1.68-2.54,3.37-5.07,5.06-7.61.02-.04.05-.07.07-.11,3.36-5.03,6.73-10.05,10.04-15.12,1.67-2.55,3.32-5.11,4.94-7.68,31.58-50.06,34.22-102.53,10.04-155.73-21.26-46.77-56.94-81.71-97.9-111.72-54.07-39.62-113.56-68.35-176.42-90.45C390.8,241.42,209.05,432.72,120.08,669.45c16,1.84,31.99,3.68,47.99,5.57.76.09,1.52.21,2.28.35Z"/>
      <path class="cls-12" d="M895.36,342.01c24.18,53.2,21.55,105.67-10.04,155.73-1.62,2.58-3.28,5.14-4.94,7.68-3.31,5.06-6.68,10.09-10.04,15.12-.02.04-.05.07-.07.11-1.69,2.53-3.38,5.07-5.06,7.61,14.4,5.93,29.11,11.24,43.5,17.18,5.76,2.38,11.46,4.85,17.07,7.51,2.81,1.33,5.59,2.7,8.34,4.13,30.97,16.04,60.59,34.68,90.79,52.19,1.34.77,2.75,1.41,4.13,2.11,7.19-7.03,14.56-13.88,21.69-20.98,2.37-2.36,4.72-4.75,7.03-7.19,38.28-40.4,65.1-86.79,72.97-142.72,5.38-38.25-3.05-74.42-18.2-109.23-19.31-44.36-48.8-81.61-84.32-113.77-34.56-31.29-72.8-57.85-113.28-81.11-36.48-20.97-74.43-38.82-113.12-55.15-62.81,13.49-123.3,33.25-180.76,58.6,62.86,22.11,122.34,50.83,176.42,90.45,40.96,30.01,76.64,64.95,97.9,111.72Z"/>
      <path class="cls-21" d="M1028.21,217.49c35.52,32.16,65.01,69.41,84.32,113.77,15.15,34.81,23.58,70.98,18.2,109.23-7.87,55.93-34.69,102.32-72.97,142.72-2.3,2.43-4.65,4.82-7.03,7.19-7.12,7.09-14.49,13.95-21.69,20.98,23.61,20.08,47.49,39.85,70.69,60.4,9.58,8.48,17.7,18.62,26.48,28,17.11-13.41,34.7-26.29,51.59-39.96,5.63-4.56,11.18-9.2,16.61-13.99,17.73-15.62,33.49-33.56,49.46-51.07,11.97-13.13,13.64-30.64,16.79-47.08,5.62-29.33,11.08-58.75,14.91-88.35,3.28-25.31,4.11-50.94,6.14-76.42,1.02-12.72,2-25.46,3.56-38.12,2.67-21.69-4.85-40.56-15.34-58.74-24.22-41.98-56.55-77.38-92.32-109.33-43.93-39.24-92.49-72.3-144.64-99.9-10.56-5.59-21.21-11.01-31.81-16.52-.38,0-.77,0-1.15,0-68,0-134.3,7.23-198.2,20.95,38.69,16.33,76.64,34.19,113.12,55.15,40.48,23.26,78.72,49.83,113.28,81.11Z"/>
      <path class="cls-16" d="M1260.08,1896.48c-17.37,5.24-34.53,4.17-51.88,5.35-8.42.57-16.8,5.48-25.01,5-23.91-1.38-47.71-4.52-71.57-6.88-3.42-.34-7.05-.89-10.32-.15-15.93,3.61-29.97-2.66-44.29-7.8-2.59-.93-6.12-2.5-8.04-1.51-13.85,7.18-25.05-2.42-37.28-5.27-9.22-2.15-18.48-4.21-27.61-6.69-3.54-.96-6.87-2.83-10.16-4.56-9.99-5.23-19.9-10.62-29.87-15.88-1.36-.72-3.17-1.86-4.35-1.49-15.78,5.04-25.95-6.54-37.06-13.37-20.95-12.88-40.78-27.58-61.38-41.04-3.42-2.23-8.43-1.99-12.68-2.97-2.65-.61-6.08-.52-7.78-2.16-9.37-9.07-18.7-18.24-27.26-28.07-5.48-6.3-9.22-13.53-18.65-15.86-4.36-1.08-7.86-6.65-11.19-10.64-11.42-13.64-22.59-27.49-33.86-41.25-.4-.48-.78-1.04-1.29-1.37-27.64-17.89-35.24-49.54-51.74-75.09-3.24-5.01-8.33-8.81-11.67-13.77-4.13-6.15-7.97-12.66-10.8-19.49-15.82-38.23-25.22-78.4-36.54-118.07-12.85-45.04-11.05-90.52-10.25-136.01.68-38.61,14.01-75.22,24.16-112.08,6.95-25.24,17.13-49.61,26.38-74.17,1.64-4.36,6-7.62,8.74-11.64,5.42-7.95,10.94-15.88,15.79-24.18,9.3-15.95,18.12-32.18,27.25-48.22,1.54-2.7,3.11-6.37,5.57-7.38,17.75-7.31,23.88-25.36,35.94-37.86,2.28-2.37,5.37-3.95,8.09-5.89.11-6.57.48-13.15.28-19.71-.72-22.88,4.43-44.8,10.52-66.59-4.05,1.99-8.81,3.19-12.01,6.1-9.03,8.21-17.2,17.37-26.15,25.67-4.46,4.14-10.31,6.8-14.78,10.93-7.06,6.52-13.98,13.31-20.08,20.71-8.32,10.09-14.61,22.09-23.89,31.09-24.56,23.86-35.45,56.26-54.4,83.32-26.94,38.48-36.41,82.73-49.54,126.01-2.08,6.86-3.67,13.17-12.95,8.53-.14,1.85-.28,3.7-.43,5.55-.49,1.29-.97,2.57-1.46,3.85-.83,10.73-1.67,21.46-2.5,32.18-.49,4.38-.98,8.76-1.47,13.14-.04,1.22-.07,2.45-.11,3.67.67,17.68.81,35.42,1.27,53.12.06,2.21.12,4.42.19,6.64.21,6.63.48,13.26.86,19.87.51,8.82,1.2,17.62,2.2,26.38,6.81,59.9,23.33,117.38,47.64,172.92,29.17,66.64,69.5,125.39,119.51,177.6,38.81,40.52,83.29,74.02,132.24,101.58,82.02,46.18,169.8,71.39,264.08,73.24,1.05.02,2.11.03,3.16.05,76.82-9.93,150.72-29.14,220.56-56.47-8.47,2.43-16.81,4.89-24.52,8.67-19.13,9.38-39.05,6.76-57.68,12.38Z"/>
      <path class="cls-16" d="M1725.8,1540.22c6.5-17.74,6.88-37.72,10-56.7-13.44,5.08-26.87,10.19-40.31,15.28-13.44,5.09-26.88,10.16-40.35,15.16-3.76,1.4-7.59,2.62-11.44,3.78-3.85,1.17-7.71,2.29-11.55,3.49,0,20.41-.17,40.81-.22,61.22-.05,20.41.01,40.81.46,61.2.42,18.99-6.04,34.19-18.73,47.29-6.3,6.5-12.98,12.74-20.14,18.25-7.37,5.67-11.88,12.77-16.62,20.71-6.2,10.39-15.53,19.21-24.6,27.52-7.87,7.21-16.57,13.28-24.67,20.28,50.67-34.45,97.8-73.72,140.73-117.15,7.52-11.22,14.22-23,19.54-35.79,11.87-28.5,27.28-55.62,37.87-84.53Z"/>
      <path class="cls-27" d="M1827.79,1258.91c-4.13,3.88-8.26,7.76-12.39,11.63-31.12,33.33-66.33,61.57-104.31,86.34-5.43,3.54-10.91,7.01-16.44,10.41-66.92,41.12-139.21,68.76-215.91,84.81-34.88,7.3-70.11,12.79-105.93,12.7-29.12-.08-58.35,1.4-87.34-.66-45.56-3.23-90.63-10.71-134.76-22.99-2.71-.75-5.49-1.23-8.24-1.83-5.17,9.41-10.62,18.69-15.41,28.3-2.97,5.97-4.95,12.43-7.37,18.67h0c8.79,3.96,17.57,7.92,26.36,11.88,36.49,10.98,72.63,23.41,109.56,32.64,69.05,17.25,139.56,21.17,210.48,17.81,56.38-2.67,111.6-12.89,166.08-27.39,3.83-1.2,7.7-2.32,11.55-3.49,3.85-1.17,7.68-2.39,11.44-3.78,13.47-5.01,26.91-10.07,40.35-15.16,13.44-5.09,26.87-10.19,40.31-15.28,2.85-1.44,5.72-2.85,8.6-4.25,2.88-1.4,5.76-2.8,8.62-4.21,5.74-2.83,11.42-5.74,16.94-8.95,13.69-7.96,31.72-2.19,40.4,9.98,39.69-67.42,71.21-140.22,93.2-217.06-17.69,0-35.38.02-53.07.02-7.57,0-15.13-.09-22.7-.13Z"/>
      <path class="cls-18" d="M1569.86,332.56c-2,7.25-2.26,14.97-4.11,22.27-5.97,23.5-12.98,46.76-18.36,70.39-9.2,40.42-18.05,80.93-25.92,121.62-5.55,28.66-8.88,57.74-13.85,86.52-5.87,34.01-12.26,67.94-18.75,101.84-4.02,21.04-8.82,41.93-12.89,62.96-1.82,9.4-2,19.15-4.21,28.43-2.5,10.47-6.04,20.75-9.91,30.82-2.33,6.06-4.79,14.49-9.59,16.74-15.3,7.16-22.61,22.36-35.46,31.63-1.95,1.41-4.76,1.6-6.84,2.88-3.87,2.39-9.99,4.6-10.75,7.91-2.24,9.74-10.65,12.39-16.57,18.02-7.22,6.87-13.17,15.06-20.15,22.21-3.33,3.42-7.39,6.71-11.76,8.44-33.75,13.33-67.62,26.35-101.55,39.21-1.49.57-3.07.91-4.68,1.16-.6.09-1.2.17-1.8.24-.97.11-1.95.21-2.93.31-.12.01-.25.03-.37.04-1.03.11-2.05.22-3.05.38-3.52,17.57-7.03,35.15-10.54,52.72-.25,1.26-.5,2.51-.75,3.77,1.81.36,4.73.15,5.27,1.19,4.52,8.67,10.84,5.96,17.59,3.56,44.73-15.9,89.53-31.64,134.28-47.5,11.84-4.2,25-6.6,35.01-13.51,9.94-6.85,20.69-12.3,30.41-19.38,1.73-1.26,3.14-3.56,5-3.95,21.2-4.45,33.16-19.8,44.66-36.31,5.17-7.42,12.82-13.08,18.5-20.21,3.58-4.5,5.61-10.23,8.29-15.43,2.76-5.36,5.47-10.74,8.2-16.12-.92-11.15-.3-21.98,1.63-32.55.27-1.51.58-3.01.9-4.51.65-3,1.41-5.97,2.27-8.92,2.57-8.86,6.02-17.52,10.21-26.02,2.89-5.86,7.74-10.81,10.26-16.78,3.25-7.68,5.29-15.91,7.4-24.02,1.24-4.77,1.83-9.75,2.31-14.67,1.84-18.79,2.97-37.66,5.39-56.37,2.95-22.78,7.67-45.33,10.26-68.14,2.3-20.32.9-41.18,4.4-61.23,6.16-35.24,14.8-70.05,22.43-105.03,6.15-28.19,15.28-55.47,29.86-80.33,11.07-18.87,19.34-38.85,27.15-59.03-24.9-25.08-51.21-48.76-78.8-70.92-1.2,5.91-2.48,11.8-3.93,17.65-4.02,16.17-9.74,31.92-14.18,48Z"/>
      <path class="cls-10" d="M1407.36,219.99c-.18,6.44.87,12.93.45,19.34-1.28,19.59-2.83,39.16-4.61,58.71-1.29,14.25-3.12,28.46-4.69,42.69-1.74,15.77-3.65,31.53-5.11,47.33-1.12,12.11-.68,24.43-2.61,36.39-6.12,37.76-13.31,75.35-19.55,113.1-5.73,34.63-10.45,69.43-16.23,104.05-2.62,15.64-6.84,31.01-10.17,46.54-5.41,25.23-10.55,50.52-16.1,75.73-1.39,6.33-3.38,12.65-6.04,18.55-5.08,11.31-11.58,22.01-16.08,33.52-4.2,10.76-12.75,15.88-21.99,20.48-19.07,9.5-38.36,18.56-57.47,28-.3.15-.59.31-.87.49-1.97,1.26-3.58,3.25-5.39,4.82,3.19,15.79,6.51,31.56,9.62,47.36,1.04,5.27,2.05,10.54,3.02,15.82,1.13,6.1,1.51,12.33,1.96,18.55.15,2.07.31,4.15.5,6.21,22.36-9.48,44.4-19.85,67.04-28.51,3.24-1.24,6.48-2.44,9.75-3.6,19.85-7.06,32.29-20.87,42.11-37.72,10.1-17.32,19.69-35.08,27.63-53.46,8.82-20.43,16.95-41.13,20.22-63.68,2.46-16.92,8.91-33.25,13.35-49.9,5.52-20.71,11.46-41.35,16.01-62.28,4.61-21.22,7.89-42.73,11.48-64.16,2.77-16.55,4.87-33.21,7.73-49.74,2.33-13.48,5.42-26.82,8.06-40.25,5.42-27.5,10.86-55,16.11-82.53,6.24-32.68,12.83-65.32,18.21-98.15,2.74-16.71,3.25-33.79,4.6-50.72.82-10.26.22-20.77,2.21-30.78,2.41-12.14,3.78-23.84,2.22-36.27-30.38-19.28-61.94-36.87-94.56-52.62.42,4.76.75,9.53.89,14.3.51,17.42-1.22,34.9-1.72,52.37Z"/>
      <path class="cls-31" d="M1500.53,242.22c-1.99,10.01-1.39,20.51-2.21,30.78-1.35,16.93-1.86,34.01-4.6,50.72-5.38,32.83-11.97,65.46-18.21,98.15-5.26,27.53-10.7,55.03-16.11,82.53-2.64,13.43-5.73,26.77-8.06,40.25-2.86,16.53-4.96,33.19-7.73,49.74-3.59,21.43-6.87,42.94-11.48,64.16-4.55,20.93-10.49,41.57-16.01,62.28-4.44,16.65-10.9,32.98-13.35,49.9-3.27,22.55-11.4,43.25-20.22,63.68-7.94,18.38-17.54,36.14-27.63,53.46-9.82,16.85-22.27,30.67-42.11,37.72-3.26,1.16-6.51,2.36-9.75,3.6-22.65,8.66-44.69,19.04-67.04,28.51h0c.05,3.11.1,6.23.16,9.34,0,0,0,0,0,0h0s0,0,0,0c.1,3.45.2,6.9.3,10.36.14,4.73.28,9.46.41,14.2.18.43.41.84.5,1.28.01.06-.08.14-.2.23-.12.09-.27.18-.38.26-.14,4.41-.28,8.82-.42,13.23,1.01-.16,2.03-.27,3.05-.38.12-.01.25-.03.37-.04.98-.1,1.96-.2,2.93-.31.6-.07,1.21-.15,1.8-.24,1.61-.25,3.19-.59,4.68-1.16,33.93-12.86,67.8-25.88,101.55-39.21,4.37-1.73,8.42-5.02,11.76-8.44,6.98-7.15,12.93-15.33,20.15-22.21,5.92-5.64,14.32-8.28,16.57-18.02.76-3.31,6.88-5.52,10.75-7.91,2.08-1.29,4.88-1.48,6.84-2.88,12.85-9.27,20.16-24.47,35.46-31.63,4.8-2.25,7.25-10.68,9.59-16.74,3.88-10.06,7.42-20.34,9.91-30.82,2.21-9.28,2.39-19.03,4.21-28.43,4.07-21.03,8.87-41.92,12.89-62.96,6.48-33.9,12.88-67.83,18.75-101.84,4.96-28.78,8.3-57.86,13.85-86.52,7.87-40.69,16.72-81.21,25.92-121.62,5.38-23.63,12.39-46.89,18.36-70.39,1.85-7.3,2.11-15.02,4.11-22.27,4.44-16.08,10.16-31.82,14.18-48,1.45-5.85,2.73-11.74,3.93-17.65-27.21-21.85-55.66-42.21-85.22-60.96,1.57,12.43.19,24.13-2.22,36.27Z"/>
      <path class="cls-6" d="M1897.59,816c-1.61.34-4.95-2.28-5.74-4.25-2.77-6.93-7.49-8.97-14.69-8.77-22.39.63-40.71-11.06-59.61-20.72-24.98-12.77-41.37-34.4-57.33-56.4h0s0,0,0,0c-2.13-2.1-4.08-2.86-5.92-2.85-5.54.03-10.18,7-16.41,5.57-.73,10.01-.92,19.81-2.41,29.42-.58,3.76-4.43,10.21-6.18,10.02-6.76-.76-6.17,3.06-6.82,7.24-1.25,7.95-3.53,15.77-4.4,23.75-1.38,12.69-14.58,24.95-1.56,38.43,1.28,1.32.68,4.93.24,7.34-1.16,6.38-1.81,13.07-4.31,18.94-4.34,10.23-9.5,19.34-10.07,31.55-.36,7.6-.24,12.23,4.54,17.7,9.12,10.44,7.96,22.75-1.72,31.89-2.09,1.98-2.3,5.94-3.38,8.99,4.77-.22,8.82-.34,11.24,5.59,4.86,11.94,5.28,11.77-1.24,20.34,8.88,15.07,8.23,18.22-5.11,30.43-2.23,2.04-4.31,4.26-6.34,6.52-2.03,2.26-4.02,4.57-6.09,6.8,4.6.3,9.16.79,13.67,1.46,2.25.34,4.5.72,6.73,1.16,4.46.87,8.88,1.93,13.25,3.19,6.55,1.9,13,4.25,19.35,7.1,2.97,1.33,7.5.21,10.99-.83,10.09-3,19.83-7.47,30.07-9.52,6.55-1.31,13.83.12,20.64,1.22,13.72,2.21,26.59,4.67,40.9-.89,17.42-6.77,36.38-9.57,54.64-14.21,5.39-1.37,10.65-3.28,16.03-4.74,3.84-1.04,7.77-1.75,11.65-2.6,2.4-9.77,4.79-19.54,7.19-29.31-1.47-57.53-8.12-113.77-19.48-168.28-1.32.96-2.67,1.89-4.07,2.73-5.39,3.22-12.01,4.64-18.27,5.97Z"/>
      <path class="cls-22" d="M1177.61,176.7c35.77,31.95,68.1,67.35,92.32,109.33,10.49,18.19,18.01,37.05,15.34,58.74-1.56,12.66-2.54,25.4-3.56,38.12-2.04,25.48-2.87,51.11-6.14,76.42-3.83,29.6-9.3,59.02-14.91,88.35-3.15,16.44-4.82,33.96-16.79,47.08-15.97,17.52-31.73,35.45-49.46,51.07-5.43,4.78-10.98,9.43-16.61,13.99-16.89,13.67-34.47,26.55-51.58,39.96,13.95,18.79,27.9,37.59,41.85,56.38,9.07-4.86,18.53-9.11,27.27-14.45,1.25-.76,2.48-1.55,3.7-2.36,19.73-13.18,39.01-27.05,58.03-41.23,3.98-2.97,7.29-8.13,8.79-12.94,8.33-26.79,16.67-53.6,23.7-80.75,6.39-24.67,12.15-49.6,16.31-74.73,5.53-33.43,10.09-67.08,13.49-100.8,3.78-37.49,11.22-74.68,9.55-112.67-.64-14.56.2-29.18-.22-43.75-.26-9.08-1.74-18.13-2.45-27.21-.68-8.6-.4-17.34-1.84-25.8-.94-5.52-2.88-11.93-6.61-15.75-26.23-26.85-51.89-54.36-82.87-76.08-25.61-17.95-50.98-36.23-76.65-54.09-51.08-8.66-103.56-13.21-157.09-13.27,10.6,5.51,21.25,10.93,31.81,16.52,52.15,27.6,100.71,60.66,144.64,99.9Z"/>
      <path class="cls-30" d="M1779.06,510.12c-13.3,16.39-24.36,34.02-30.21,54.51-6.72,23.52-9.7,47.5-8.17,71.95.66,10.52,1.18,21.09,2.76,31.49,1.96,12.9,4.37,25.8,7.71,38.39.68,2.55,1.69,5,2.85,7.42,1.16,2.42,2.47,4.79,3.76,7.18.86,1.59,1.7,3.18,2.47,4.79,15.96,22,32.35,43.63,57.33,56.4,18.89,9.66,37.22,21.36,59.61,20.72,7.2-.2,11.91,1.84,14.69,8.77.79,1.96,4.13,4.59,5.74,4.25,6.26-1.33,12.88-2.75,18.27-5.97,1.4-.84,2.74-1.77,4.07-2.73-23.45-112.5-67-217.62-126.75-311.42-5.06,4.24-9.81,8.92-14.12,14.23Z"/>
      <path class="cls-36" d="M1317.76,203.72c3.73,3.82,5.67,10.23,6.61,15.75,1.44,8.46,1.16,17.2,1.84,25.8.72,9.08,2.19,18.12,2.45,27.21.42,14.57-.42,29.19.22,43.75,1.67,37.99-5.77,75.18-9.55,112.67-3.4,33.71-7.96,67.36-13.49,100.8-4.16,25.13-9.92,50.06-16.31,74.73-7.03,27.15-15.37,53.96-23.7,80.75-1.5,4.81-4.8,9.97-8.79,12.94-19.02,14.18-38.3,28.05-58.03,41.23-1.22.81-2.45,1.6-3.7,2.36-8.74,5.34-18.21,9.6-27.27,14.46,9.44,16.33,18.89,32.65,28.34,48.98,18.92-10.28,37.85-20.52,56.73-30.85,3.84-2.1,7.48-4.55,11.22-6.82,8.7-5.28,15.77-11.14,18.5-22.22,2.57-10.44,8.54-20.02,12.54-30.16,2.5-6.34,4.43-12.95,6.09-19.57,9.32-37.13,19.42-74.11,27.46-111.52,8.55-39.8,16.08-79.89,22.24-120.13,5.46-35.65,8.55-71.68,12.42-107.57.89-8.26.8-16.63.97-24.95.68-34.59-.97-69.42,2.63-103.69,2.78-26.46-4.45-51.01-6.57-76.46-.32-3.79-3.15-8.26-6.18-10.79-8.44-7.05-16.97-14-25.51-20.94-54.67-20.43-111.75-35.92-170.7-45.92,25.67,17.86,51.05,36.14,76.65,54.09,30.98,21.71,56.64,49.23,82.87,76.08Z"/>
      <path class="cls-19" d="M1360.63,151.21c2.12,25.44,9.35,50,6.57,76.46-3.61,34.28-1.96,69.1-2.63,103.69-.16,8.32-.08,16.69-.97,24.95-3.87,35.89-6.96,71.91-12.42,107.57-6.16,40.24-13.69,80.32-22.24,120.13-8.04,37.41-18.13,74.39-27.46,111.52-1.66,6.62-3.59,13.23-6.09,19.57-4,10.14-9.97,19.71-12.54,30.16-2.73,11.08-9.8,16.94-18.5,22.22-3.74,2.27-7.39,4.72-11.22,6.82-18.89,10.33-37.82,20.58-56.73,30.85.07.56.04,1.11-.1,1.66,7.1,18.12,14.2,36.24,21.3,54.36,1.12,2.85,2.21,5.71,3.31,8.58,1.81-1.57,3.42-3.56,5.39-4.82.28-.18.57-.35.87-.49,19.11-9.44,38.4-18.5,57.47-28,9.24-4.6,17.79-9.71,21.99-20.48,4.5-11.51,11-22.22,16.08-33.52,2.65-5.9,4.64-12.22,6.04-18.55,5.55-25.2,10.69-50.49,16.1-75.73,3.33-15.53,7.56-30.9,10.17-46.54,5.79-34.62,10.51-69.42,16.23-104.05,6.24-37.75,13.43-75.34,19.55-113.1,1.94-11.96,1.5-24.28,2.61-36.39,1.46-15.8,3.37-31.55,5.11-47.33,1.57-14.23,3.4-28.44,4.69-42.69,1.78-19.55,3.33-39.12,4.61-58.71.42-6.41-.63-12.9-.45-19.34.5-17.46,2.23-34.94,1.72-52.37-.14-4.77-.47-9.53-.89-14.3-25.78-12.45-52.22-23.75-79.25-33.85,8.54,6.94,17.07,13.88,25.51,20.94,3.03,2.53,5.86,7,6.18,10.79Z"/>
      <path class="cls-3" d="M1921.44,1033.92c-7.73,19.06-16.6,37.51-26.79,55.2-11.89,20.64-25.6,40.24-41.44,58.56-2.36,2.73-4.77,5.42-7.22,8.08-17.13,18.61-36.13,35.59-54.1,53.47-1.82,2.02-3.65,4.03-5.47,6.05-1.85,1.4-3.7,2.8-5.55,4.19-1.31,1.06-2.62,2.11-3.93,3.17-1.9,1.42-3.8,2.85-5.7,4.27-.63.41-1.26.82-1.89,1.23.04.66.05,1.29.02,1.91-.18,4.93-2.25,8.59-5.21,11.56-2.59,2.6-5.86,4.68-9.13,6.63-4.74,2.82-7.76,6.02-5.58,11.13,2.76,6.45-1.07,9.46-5.24,12.26-5.15,3.46-10.33,6.18-11.63,13.47-.44,2.51-5.23,4.66-8.4,6.19-5.96,2.88-11.83,4.76-11.63,13.65.07,3.04-4.76,6.93-8.18,9.14-6.57,4.24-13.41,7.61-15.82,16.13-.72,2.54-4.14,4.34-6.35,6.44-4.53,4.3-8.88,8.84-13.71,12.78-3.04,2.48-6.79,4.11-10.29,6.01-6.4,3.48-14.66,5.06-14.8,14.79,13.93-.04,24.71-8.23,36.11-14.43,20.34-11.06,40.93-21.84,60.31-34.44,21.42-13.94,41.51-29.92,62.39-44.72,3.88-2.75,8.74-4.1,13.16-6.09,4.13-3.88,8.26-7.76,12.39-11.63,19.91-26.76,40.62-52.97,59.42-80.49,1.37-2,2.68-4.03,3.96-6.09,8.95-14.42,15.98-30.16,24.06-45.17,8.2-18.11,15.73-36.48,21.78-55.29,1.79-23.72,2.71-47.69,2.71-71.87,0-8.16-.1-16.3-.31-24.42-2.4,9.77-4.8,19.54-7.19,29.31-3.33,9.82-6.91,19.5-10.78,29.03Z"/>
      <path class="cls-17" d="M1769.96,1466.11c-5.52,3.21-11.21,6.12-16.94,8.95-2.87,1.41-5.75,2.81-8.62,4.21-2.88,1.4-5.75,2.81-8.6,4.25-3.13,18.98-3.5,38.96-10,56.7-10.6,28.92-26,56.03-37.87,84.53-5.33,12.79-12.03,24.57-19.54,35.79,54.57-55.21,102.35-117.15,141.98-184.46-8.68-12.17-26.71-17.93-40.4-9.98Z"/>
      <path class="cls-12" d="M1891.17,1172.33c-1.28,2.06-2.6,4.09-3.96,6.09-18.8,27.52-39.51,53.73-59.42,80.49,7.57.05,15.13.13,22.7.13,17.69,0,35.38,0,53.07-.02,12.24-42.78,21.52-86.82,27.61-131.87-5.31,0-10.63,0-15.94,0-8.08,15.01-15.11,30.75-24.06,45.17Z"/>
      <path class="cls-12" d="M119.85,747.68c1.3-1.93,2.61-3.85,3.94-5.75,2.66-3.81,5.38-7.57,8.21-11.26,12.93-16.84,27.32-32.56,41.06-48.77,1.39-1.64,2.71-3.35,4.06-5.03,0,0,0,0,0,0t0,0c-1.3-.27-2.6-.58-3.9-.88-.96-.22-1.92-.43-2.88-.61-.76-.14-1.52-.26-2.28-.35-15.99-1.89-31.99-3.74-47.99-5.57-13,34.59-24.03,70.15-32.93,106.55,4.5.28,8.99.55,13.49.83,6.5-9.65,12.71-19.51,19.21-29.15Z"/>
      <path class="cls-21" d="M1915.23,1127.16c5.31,0,10.63,0,15.94,0,2.47-18.27,4.43-36.7,5.84-55.29-6.06,18.8-13.59,37.18-21.78,55.29h0Z"/>
      <path class="cls-21" d="M100.63,776.83c-4.5-.28-8.99-.55-13.49-.83-4.26,17.4-8.01,35-11.28,52.77,1.03-2.46,2.08-4.92,3.15-7.37,6.62-15.11,14.38-29.73,21.62-44.57Z"/>
      <path class="cls-14" d="M404.24,645.07c12.99-6.37,25.56-13.6,38.32-20.44.53-.28,1.22-.24,1.81-.45,17.93-6.34,35.81-12.83,53.8-18.98,13.51-4.62,26.91-10.02,40.81-12.88,18.05-3.71,36.41-5.93,54.7-8.52,2.61-.37,5.22-.75,7.83-1.14.73-.31,1.46-.67,2.19-1.04,2.18-1.11,4.36-2.3,6.64-2.6,11.7-1.51,23.46-2.64,35.23-3.62,3.04-.25,6.18.9,9.24.78,7.68-.3,15.35-.99,23.03-1.48,5.55-.36,11.11-.89,16.66-.87,4.02.02,8.02.95,12.05,1.27,13.51,1.06,27.19,3.85,40.5,2.65,26.54-2.41,49.84,9.87,74.84,13.7,34.47,5.27,64.43,21.34,95.12,35.91,49.8,23.62,94.27,55.69,137.13,89.75,26.64,21.17,51.17,45,70.94,73.27,13.53,19.35,29.2,37.27,41.87,57.14,16.98,26.61,32.22,54.35,47.72,81.88,5.87,10.42,10.22,21.69,15.63,32.39.55,1.09,1.52,1.97,2.6,2.79.54.41,1.11.81,1.67,1.21.56.4,1.11.81,1.61,1.24-.05-3.11-.11-6.23-.16-9.34,0,0,0,0,0,0-.19-2.07-.35-4.14-.5-6.21-.45-6.22-.83-12.46-1.96-18.55-.98-5.28-1.99-10.55-3.02-15.82-3.11-15.8-6.43-31.57-9.62-47.36,0,0,0,0,0,0,0,0,0,0,0,0-1.1-2.86-2.2-5.72-3.31-8.58-7.1-18.12-14.2-36.24-21.3-54.36-2.06-1.37-4.37-2.52-6.46-3.87-.54-.35-1.07-.7-1.57-1.08-.82-.62-1.57-1.29-2.24-2.04-13.62-15.45-26.66-31.42-40.3-46.85-9.74-11.02-19.71-21.88-30.25-32.12-45.91-44.6-95.33-84.79-151.9-115.22-24.7-13.29-50.49-24.56-75.95-36.42-1.95-.91-3.93-1.75-5.93-2.54-6.01-2.38-12.2-4.37-18.26-6.64-1.26-1.25-2.52-2.5-3.77-3.75-4.39-.64-8.79-1.27-13.18-1.91,0,0,0,0,0,0h0s0,0,0,0c-7.09-1.78-14.18-4.28-21.27-6.33-7.09-2.05-14.18-3.64-21.26-3.61-16.35.07-31.83-4.11-47.74-4.78-16.93-.72-33.96,1.11-50.96,1.54-30.14.76-60.31.62-90.4,2.21-14.73.78-29.34,4.41-43.95,7.09-19.23,3.52-38.63,6.46-57.51,11.36-17.4,4.51-34.18,11.37-51.29,17.03-10,3.31-20.1,6.31-30.15,9.45h0c-5.74,2.61-11.44,5.32-17.24,7.81-5.86,2.51-11.61,4.98-11.03,12.92,10.85,1.23,21.44,1.1,31.88-3.19,3.16-1.3,7.46.18,11.23.39.12,1.4.25,2.79.37,4.19-11.52,3.39-23.33,6.03-34.43,10.46-6.12,2.45-15.34,7.64-15.61,12.07-.63,10.21-7.31,11.63-13.49,15.42-.48.3-.95.62-1.41.96-.91.69-1.77,1.45-2.61,2.27-.83.81-1.64,1.68-2.44,2.55-1.2,1.31-2.38,2.63-3.63,3.86,10.25-4.28,20.74-8.08,30.7-12.96Z"/>
      <path class="cls-3" d="M100.35,883.77c4.8-11.11,14.15-21.69,21.21-32.77,7.35-11.53,16.39-21.98,24.68-32.91.37-.49.78-1.08.83-1.66,1.64-17.01,17.41-24.3,25.76-36.71,8.42-12.52,20.27-22.72,30.49-34.05,1.2-1.33,1.42-3.48,2.41-5.05,1.62-2.59,3.03-5.62,5.34-7.44,28.83-22.79,57.57-45.71,86.85-67.9,13.37-10.13,27.57-19.28,41.98-27.89,13.12-7.84,26.82-14.8,40.68-21.25,7.23-3.36,15.36-4.78,23.09-7.08-.58-7.95,5.17-10.41,11.03-12.92,5.8-2.48,11.5-5.19,17.24-7.81-1.08-1.41-2.16-2.83-3.29-4.31-1.89-2.47-3.91-5.11-6.3-8.24,8.2-3.33,16.23-6.58,24.59-9.98-2.76-8.78-8.44-13.3-15.96-12.92-6.81.34-13.48,3.37-20.21,5.22-.32-.91-.63-1.82-.95-2.72,11.28-4.11,22.59-8.15,33.84-12.35,8.06-3,16.05-6.21,24.06-9.32-5.08.11-10.53-.96-15.18.51-55.02,17.43-109.93,35.27-161.19,62.35-15.43,8.15-30.16,17.61-45.37,26.17-2.25,1.27-5.41.92-8.15,1.32-20.23,17.6-40.47,35.2-60.7,52.81-1.35,1.68-2.67,3.39-4.06,5.03-13.74,16.22-28.14,31.93-41.06,48.77-2.83,3.68-5.55,7.44-8.21,11.26-1.33,1.91-2.64,3.82-3.94,5.75-6.51,9.64-12.72,19.5-19.21,29.15,0,0,0,0,0,0-7.24,14.84-15,29.46-21.62,44.57-1.07,2.45-2.12,4.91-3.15,7.37-6.76,36.7-11.39,74.14-13.75,112.2,6.38-9.05,12.7-18.14,19.08-27.19,6.83-9.68,14.15-18.4,19.16-30.01Z"/>
      <path class="cls-35" d="M636.22,513.12c36.93-.51,73.4,4.76,109.53,11.88,24.11,4.75,48.02,10.51,71.92,16.26,8.16,1.97,16.08,5.1,23.93,8.15,1.23.48,2.2,1.63,3.15,2.84.57.73,1.13,1.48,1.73,2.11,0,0,0,0,0,0,4.39.64,8.79,1.27,13.18,1.91,1.26,1.25,2.52,2.5,3.77,3.75,6.06,2.27,12.25,4.25,18.26,6.64,2,.79,3.98,1.63,5.93,2.54,25.45,11.85,51.25,23.13,75.95,36.42,56.57,30.43,105.99,70.62,151.9,115.22,10.54,10.24,20.52,21.11,30.25,32.12,13.64,15.43,26.68,31.4,40.3,46.85.66.75,1.42,1.42,2.24,2.04.5.38,1.03.73,1.57,1.08,2.09,1.34,4.4,2.5,6.46,3.87.14-.55.17-1.1.1-1.66,0,0,0,0,0,0-9.45-16.33-18.89-32.65-28.34-48.98,0,0,0,0,0,0-13.95-18.79-27.9-37.59-41.85-56.38,0,0,0,0,0,0-8.78-9.39-16.89-19.52-26.48-28-23.2-20.54-47.08-40.31-70.69-60.39,0,0,0,0,0,0,0,0,0,0,0,0-1.38-.7-2.8-1.34-4.13-2.11-30.21-17.51-59.83-36.15-90.79-52.19-2.75-1.43-5.54-2.8-8.34-4.13-5.61-2.65-11.32-5.13-17.07-7.51-14.39-5.94-29.1-11.26-43.5-17.18,0,0,0,0,0,0-1.54-.26-3.15-.32-4.62-.8-78.12-25.27-158.17-38.01-240.29-35.17-30.55,1.06-61.19,3.86-91.46,8.2-45.04,6.45-88.78,18.71-131.36,34.91-35.93,13.67-70.39,29.99-103.01,49.61-19.57,11.78-38.48,24.74-56.65,39.05,2.74-.4,5.9-.05,8.15-1.32,15.21-8.57,29.95-18.02,45.37-26.17,51.26-27.07,106.17-44.91,161.19-62.35,4.65-1.47,10.1-.4,15.18-.51,32.47-5.68,64.81-12.41,97.47-16.68,23.46-3.06,47.33-3.57,71.04-3.9Z"/>
      <path class="cls-20" d="M1166.18,1165.83c-3.01,8.88-7.63,17.56-8.7,26.67-2.79,23.74,10.75,39.85,28,53.62,2.47-1.96,4.66-4.99,7.45-5.73,55.85-14.74,112.18-27.84,167.57-44.15,55.19-16.25,109.51-35.48,164.04-53.91,10.26-3.47,19.76-9.2,29.53-14.08,1.59-.79,2.87-2.41,3.99-3.88,6.41-8.48,12.72-17.03,20.01-26.82-.71-1.42-2.47-4.93-4.96-9.9,9.71-2.52,16.94-6.11,23.84-14.26,7.17-8.46,22.87-9.71,34.84-14.1.86-.32,2.31-.28,2.57-.83,7.11-15.52,25.01-13.22,36.2-21.99,4.56-3.58,9.35-6.93,14.36-9.84,2.78-1.61,6.22-2.09,9.37-3.07,2.06-2.23,4.05-4.54,6.09-6.8,2.03-2.26,4.11-4.48,6.34-6.52,13.34-12.21,13.99-15.36,5.11-30.43,6.52-8.58,6.1-8.41,1.24-20.34-2.42-5.94-6.47-5.81-11.24-5.59-4.91,9.44-12.91,14.2-23.32,13.64-6.67-.36-12.91-1.74-17.49,5.06-.89,1.32-4.29,2.19-5.87,1.58-6.89-2.69-13.57-5.94-20.26-9.12-1.91-.91-5.15-3.34-5.2-3.28-6.75,9.74-18.41,6.03-27.07,10.1-6.12,2.88-11.63,7.08-17.41,10.69-.7-.53-1.41-1.06-2.11-1.59,5.28-10.91,9.27-21.77.71-32.53-.48-.6.69-2.33.73-3.55.31-9.31-.03-18.49,8.55-25.47,2.4-1.95,2.41-7.58,2.44-11.53.04-7-.75-14-1.06-18.98-9.27-5.55-17.82-10.65-25.01-14.96-4.43,3.44-8.17,6.61-12.19,9.38-2.28,1.57-5.88,1.81-7.37,3.79-2.27,3.02-4.78,5.3-7.67,6.72-1.51.74-3.13,1.24-4.87,1.5-1.59.24-3.27.28-5.07.09-2.73,5.37-5.44,10.76-8.2,16.12-2.68,5.2-4.71,10.94-8.29,15.43-5.68,7.13-13.33,12.79-18.5,20.21-11.5,16.51-23.46,31.85-44.66,36.31-1.86.39-3.27,2.69-5,3.95-9.72,7.08-20.47,12.53-30.41,19.38-10.02,6.91-23.17,9.31-35.01,13.51-44.75,15.86-89.54,31.59-134.28,47.5-6.74,2.4-13.06,5.1-17.59-3.56-.54-1.03-3.45-.82-5.27-1.19-7.38,15.31-14.76,30.62-22.14,45.93-12.25,18.94-24.5,37.88-36.76,56.82Z"/>
      <path class="cls-24" d="M1666.77,337.83c-7.81,20.18-16.08,40.16-27.15,59.03-14.59,24.86-23.71,52.14-29.86,80.33-7.63,34.98-16.27,69.79-22.43,105.03-3.5,20.05-2.1,40.91-4.4,61.23-2.58,22.81-7.31,45.36-10.26,68.14-2.42,18.71-3.55,37.58-5.39,56.37-.48,4.92-1.07,9.9-2.31,14.67-2.11,8.11-4.15,16.34-7.4,24.02-2.52,5.97-7.37,10.92-10.26,16.78-4.19,8.5-7.64,17.17-10.21,26.02-.86,2.95-1.62,5.93-2.27,8.92-.33,1.5-.63,3-.9,4.51-1.92,10.56-2.55,21.4-1.63,32.55,1.8.19,3.49.15,5.07-.09,1.74-.26,3.36-.76,4.87-1.5,2.89-1.42,5.4-3.7,7.67-6.72,1.49-1.98,5.1-2.23,7.37-3.79,4.02-2.77,7.76-5.94,12.19-9.38,7.19,4.3,15.74,9.41,25.01,14.96.31,4.99,1.1,11.99,1.06,18.98-.02,3.95-.04,9.58-2.44,11.53-8.58,6.97-8.24,16.15-8.55,25.47-.04,1.22-1.2,2.95-.73,3.55,8.56,10.77,4.57,21.62-.71,32.53.7.53,1.41,1.06,2.11,1.59,5.78-3.61,11.28-7.81,17.41-10.69,8.66-4.07,20.32-.36,27.07-10.1.04-.06,3.28,2.37,5.2,3.28,6.69,3.18,13.37,6.43,20.26,9.12,1.58.62,4.99-.26,5.87-1.58,4.57-6.81,10.82-5.42,17.49-5.06,10.41.55,18.41-4.2,23.32-13.64,1.08-3.05,1.29-7.01,3.38-8.99,9.67-9.15,10.84-21.45,1.72-31.89-4.78-5.47-4.9-10.1-4.54-17.7.57-12.21,5.74-21.32,10.07-31.55,2.49-5.87,3.15-12.56,4.31-18.94.44-2.42,1.04-6.02-.24-7.34-13.01-13.48.18-25.73,1.56-38.43.87-7.98,3.15-15.79,4.4-23.75.66-4.19.06-8.01,6.82-7.24,1.75.2,5.6-6.26,6.18-10.02,1.49-9.61,1.68-19.42,2.41-29.42,6.22,1.43,10.87-5.54,16.41-5.57,1.85-.01,3.79.75,5.92,2.84-.78-1.61-1.62-3.2-2.47-4.79-1.28-2.38-2.6-4.76-3.76-7.18-1.16-2.42-2.17-4.88-2.85-7.42-3.35-12.6-5.76-25.49-7.71-38.39-1.58-10.4-2.1-20.97-2.76-31.49-1.53-24.45,1.45-48.43,8.17-71.95,5.85-20.5,16.92-38.12,30.21-54.51,4.31-5.31,9.06-9.99,14.12-14.23-36.42-57.19-78.86-110.17-126.42-158.05Z"/>
      <path class="cls-28" d="M1576.92,1729.9c4.74-7.94,9.25-15.04,16.62-20.71,7.16-5.51,13.84-11.75,20.14-18.25,12.69-13.1,19.14-28.29,18.73-47.29-.45-20.39-.51-40.8-.46-61.2.05-20.41.21-40.82.22-61.22-54.47,14.5-109.69,24.72-166.08,27.39-70.91,3.36-141.42-.56-210.48-17.81-36.93-9.23-73.07-21.66-109.56-32.64v356.84c-11.11-1.74-21.01-3.77-31-4.68-6.29-.58-12.73.55-19.1.85-3,.14-6.13.72-8.98.09-8.53-1.89-16.86-4.71-25.43-6.32-6.81-1.28-13.95-.81-20.78-2.03-5.75-1.02-11.3-3.27-16.9-5.12-17.16-5.66-34.42-11.08-51.4-17.24-6.98-2.53-13.51-6.47-20-10.18-14.18-8.12-31.08-9.58-44.42-20.6-12.96-10.7-28.51-18.19-42.51-27.7-6.93-4.71-12.68-11.12-19.42-16.14-6.34-4.71-13.32-8.55-19.94-12.89-2.85-1.87-6.05-3.59-8.17-6.14-10.96-13.17-21.43-26.75-32.55-39.78-2.15-2.51-6.55-2.99-9.72-4.76-2.61-1.46-5.73-2.91-7.25-5.26-13.91-21.51-27.51-43.22-41.22-64.87-5.83-9.21-13.6-17.73-17.18-27.74-10.72-29.97-20.11-60.44-29.37-90.91-3.43-11.28-5.14-23.1-7.48-34.7-1.19-5.89-.58-12.48-8.56-14.73-1.44-.41-2.62-4.25-2.72-6.55-1.4-32.47-2.9-64.93-3.62-97.42-.19-8.59,1.78-17.33,3.63-25.81.66-3.05,3.94-5.5,5.9-8.31,1.27-1.83,2.85-3.69,3.37-5.77,6.36-25.4,10.87-51.42,19.21-76.14,9.6-28.46,16.06-58.29,35.21-83.22,13.46-17.52,23.74-37.47,35.67-56.18.44-.68.95-1.31,1.52-1.91,1.71-1.79,3.89-3.27,5.73-4.98-1.7-9.04-3.49-18.07-5.12-27.13-.54-3.02-1.07-6.04-1.57-9.07-.43-2.61.62-5.46.98-8.19-1.11-5.81-2.23-11.63-3.34-17.45-2.72,1.94-5.81,3.53-8.09,5.89-12.06,12.5-18.19,30.55-35.94,37.86-2.46,1.02-4.04,4.69-5.57,7.38-9.13,16.05-17.95,32.28-27.25,48.22-4.85,8.3-10.36,16.23-15.79,24.18-2.74,4.02-7.1,7.29-8.74,11.64-9.25,24.56-19.43,48.93-26.38,74.17-10.15,36.85-23.48,73.47-24.16,112.08-.81,45.49-2.61,90.96,10.25,136.01,11.32,39.67,20.71,79.84,36.54,118.07,2.83,6.83,6.67,13.34,10.8,19.49,3.33,4.96,8.43,8.76,11.67,13.77,16.5,25.55,24.1,57.2,51.74,75.09.51.33.89.88,1.29,1.37,11.27,13.76,22.44,27.61,33.86,41.25,3.34,3.99,6.84,9.56,11.19,10.64,9.43,2.33,13.17,9.57,18.65,15.86,8.55,9.83,17.89,18.99,27.26,28.07,1.7,1.65,5.12,1.56,7.78,2.16,4.26.97,9.27.74,12.68,2.97,20.61,13.46,40.43,28.17,61.38,41.04,11.11,6.83,21.28,18.41,37.06,13.37,1.18-.38,2.98.77,4.35,1.49,9.97,5.26,19.88,10.65,29.87,15.88,3.29,1.72,6.62,3.59,10.16,4.56,9.14,2.48,18.39,4.54,27.61,6.69,12.23,2.85,23.42,12.45,37.28,5.27,1.92-.99,5.45.58,8.04,1.51,14.32,5.14,28.35,11.4,44.29,7.8,3.26-.74,6.89-.19,10.32.15,23.85,2.36,47.66,5.5,71.57,6.88,8.2.47,16.58-4.43,25.01-5,17.35-1.18,34.51-.12,51.88-5.35,18.63-5.62,38.55-3,57.68-12.38,7.71-3.78,16.04-6.24,24.52-8.67,65.72-25.71,127.83-58.61,185.38-97.73,8.11-7,16.8-13.07,24.67-20.28,9.07-8.31,18.39-17.13,24.6-27.52Z"/>
      <path class="cls-17" d="M818.27,845.92c3.13-2.92,6.29-5.81,9.29-8.82,8.13-7.62,16.25-15.24,24.38-22.86h0c3.16-2.83,6.32-5.65,9.48-8.48-.32-.66-.63-1.31-.95-1.97-3.55,1.47-7.52,2.34-10.57,4.5-31.05,21.97-61.95,44.15-92.88,66.3-2.51,1.8-4.86,3.81-7.29,5.72-58.39,54.27-105.9,116.68-140.96,188.41-.75,2.34-1.42,4.72-2.26,7.03-12.03,33.39-25.16,66.44-35.75,100.28-6.7,21.41-9.63,44-14.25,66.06,9.27,4.64,10.86-1.68,12.95-8.53,13.13-43.29,22.6-87.53,49.54-126.01,18.95-27.07,29.84-59.47,54.4-83.32,9.27-9.01,15.57-21,23.89-31.09,6.1-7.4,13.02-14.2,20.08-20.71,4.48-4.13,10.32-6.78,14.78-10.93,8.95-8.31,17.12-17.46,26.15-25.67,3.2-2.91,7.96-4.12,12.01-6.1,7.59-24.55,18.65-47.53,33.56-68.33,4.07-5.68,9.19-10.61,14.41-15.47Z"/>
      <path class="cls-18" d="M768.85,1036.69c-.11-18.23-.22-36.46-.33-54.69.1-1.21.2-2.42.3-3.63.39-1.96.78-3.91,1.16-5.87,3.05-31.76,13.19-61.28,28.3-89.2,1.16-2.14,2.88-3.97,4.34-5.94,7.13-11.35,14.28-22.69,21.39-34.05.63-1.01,1.22-2.04,1.8-3.09.58-1.04,1.15-2.09,1.74-3.13-2.99,3.01-6.16,5.91-9.29,8.82-5.22,4.86-10.34,9.79-14.41,15.47-14.91,20.81-25.97,43.79-33.56,68.33-6.09,21.79-11.25,43.71-10.52,66.59.21,6.56-.17,13.14-.28,19.71,1.11,5.82,2.23,11.63,3.34,17.45,2,1.08,4,2.15,6,3.22Z"/>
      <path class="cls-5" d="M1050.96,1452.01c-2.46-1.42-4.91-2.86-7.35-4.32-14.63-8.75-28.9-18.16-42.77-28.26-7.8-5.13-15.42-10.47-22.88-16.02-22.36-16.64-43.17-35.13-62.44-55.45-16.15-14.98-30.74-31.29-44.24-48.5-8.1-10.32-15.81-20.97-23.24-31.85-1.71-2.5-3.36-5.04-4.97-7.6-4.85-7.68-9.39-15.58-14.15-23.32-12.54-26.38-25.08-52.77-37.62-79.15h0c-4.53-14.43-9.15-28.83-13.61-43.28-1.49-4.82-2.96-9.64-4.4-14.47-2.13-7.15-3.19-14.61-4.74-21.93-1.84,1.71-4.02,3.19-5.73,4.98-.57.6-1.09,1.23-1.52,1.91-11.94,18.71-22.21,38.66-35.67,56.18-19.15,24.93-25.61,54.76-35.21,83.22-8.34,24.72-12.86,50.74-19.21,76.14-.52,2.08-2.1,3.94-3.37,5.77-1.95,2.81-5.23,5.26-5.9,8.31-1.85,8.48-3.82,17.22-3.63,25.81.72,32.48,2.22,64.95,3.62,97.42.1,2.31,1.27,6.15,2.72,6.55,7.97,2.25,7.37,8.84,8.56,14.73,2.34,11.6,4.05,23.42,7.48,34.7,9.26,30.47,18.65,60.94,29.37,90.91,3.58,10.02,11.35,18.53,17.18,27.74,13.7,21.65,27.31,43.36,41.22,64.87,1.52,2.35,4.64,3.8,7.25,5.26,3.17,1.77,7.58,2.25,9.72,4.76,11.12,13.03,21.59,26.61,32.55,39.78,2.12,2.55,5.32,4.27,8.17,6.14,6.62,4.34,13.6,8.17,19.94,12.89,6.75,5.02,12.5,11.43,19.42,16.14,14,9.51,29.55,17.01,42.51,27.7,13.34,11.02,30.24,12.47,44.42,20.6,6.49,3.72,13.02,7.65,20,10.18,16.98,6.16,34.24,11.58,51.4,17.24,5.59,1.84,11.14,4.09,16.9,5.12,6.83,1.21,13.97.75,20.78,2.03,8.57,1.61,16.91,4.43,25.43,6.32,2.85.63,5.98.06,8.98-.09,6.37-.3,12.81-1.43,19.1-.85,9.99.91,19.89,2.94,31,4.68v-356.84c-8.79-3.96-17.58-7.92-26.36-11.88-23.65-10.1-46.59-21.47-68.73-34.27Z"/>
      <path class="cls-35" d="M1815.4,1270.55c-4.41,2-9.28,3.35-13.16,6.09-20.88,14.8-40.97,30.78-62.39,44.72-19.37,12.61-39.97,23.39-60.31,34.44-11.41,6.2-22.18,14.39-36.11,14.43-14.57,6.33-28.93,13.19-43.75,18.88-22.42,8.61-44.97,16.97-67.81,24.35-18.92,6.12-38.09,12.15-57.61,15.6-30.59,5.41-61.47,10.16-92.43,12.29-25.53,1.76-51.34-.87-77.03-1.21-52.84-.7-103.37-13.22-153.23-29.36-13.35-4.32-26.8-8.34-40.09-12.83-.65-.22-1.26-.54-1.86-.92-1.78-1.14-3.37-2.85-5.09-4.15-1.88-.01-3.76-.02-5.64-.03-2.51-1.87-5.03-3.75-7.55-5.62-1.25,0-2.51-.02-3.76-.03-3.14-1.87-6.29-3.75-9.43-5.62-20.21-9.76-41.04-18.45-60.49-29.55-25.4-14.51-50.72-29.56-74.23-46.88-27.32-20.13-52.8-42.79-78.77-64.72-10.43-8.81-19.96-18.67-30.1-27.83-.25-.23-.6-.36-1-.43-1.19-.21-2.89.14-4.22.08,3.56,5.86,7.12,11.71,10.67,17.57.21.35.43.7.64,1.05,10.99,13.55,21.3,27.72,33.14,40.48,16.03,17.27,33.23,33.47,49.96,50.1,3.08,3.06,6.32,5.97,9.48,8.96,25.75,17.4,51.5,34.81,77.27,52.19,1.55,1.04,3.11,2.05,4.69,3.05,1.58,1,3.16,1.99,4.73,2.99,9.87,5.05,19.82,9.89,29.86,14.53,30.12,13.92,61,25.98,92.67,36.14,0,0,0,0,0,0,2.75.6,5.54,1.08,8.24,1.83,44.13,12.29,89.2,19.76,134.76,22.99,28.98,2.06,58.22.59,87.34.66,35.83.09,71.05-5.4,105.93-12.7,76.71-16.05,148.99-43.69,215.91-84.81,5.53-3.4,11.02-6.87,16.44-10.41,37.98-24.77,73.18-53.01,104.31-86.34Z"/>
      <path class="cls-12" d="M1049.79,1403.17c-10.04-4.64-19.99-9.48-29.86-14.53-3.19,5.46-6.26,10.98-9.59,16.36-3.03,4.9-6.32,9.63-9.5,14.43,13.87,10.1,28.14,19.51,42.77,28.26,2.44,1.46,4.89,2.9,7.35,4.32,22.13,12.81,45.07,24.17,68.73,34.27,2.42-6.24,4.4-12.7,7.37-18.67,4.79-9.6,10.24-18.88,15.41-28.3-31.67-10.17-62.55-22.23-92.67-36.14Z"/>
      <path class="cls-15" d="M1232.89,964.58c-1.08-.82-2.05-1.7-2.6-2.79-5.41-10.7-9.77-21.97-15.63-32.39-15.5-27.53-30.74-55.27-47.72-81.88-12.67-19.86-28.35-37.78-41.87-57.14-19.76-28.27-44.3-52.1-70.94-73.27-42.86-34.06-87.33-66.13-137.13-89.75-30.7-14.56-60.66-30.63-95.12-35.91-25-3.83-48.3-16.11-74.84-13.7-13.31,1.21-26.99-1.59-40.5-2.65-4.03-.32-8.03-1.25-12.05-1.27-5.55-.03-11.11.51-16.66.87-7.68.49-15.34,1.18-23.03,1.48-3.07.12-6.21-1.04-9.24-.78-11.76.98-23.52,2.11-35.23,3.62-2.29.3-4.46,1.49-6.64,2.6-.73.37-1.46.73-2.19,1.04-4.8,1.88-9.49,4.14-14.42,5.54-4.45,1.27-9.17,1.61-15.79,2.69,5.26,7.55,9.03,12.96,13.06,18.76-10.75,3.88-23-.41-31.84,8.02,6.55,9.78,6.59,13.58.87,13.57-11.8-.03-23.02.13-30.98,10.66-.17.22-.55.36-.84.38-9.76.68-16.85,4.89-24.81,11.41-9.79,8.03-23.93,10.71-36.11,15.89-5.62,2.39-14.09,3.95-15.87,8.17-3.16,7.5-8.47,9.36-14.61,11.24-5.71,1.76-10.46,3.46-9.9,11.21.15,2.1-3.54,5.29-6.15,6.59-4.92,2.46-10.74,3.23-15.47,5.93-6.76,3.86-12.93,8.77-19.27,13.35-2.63,1.91-7.28,4.3-7.15,6.2.56,8.02-4.79,10.2-10.31,12.52-5.13,2.15-7.59,4.85-7.22,8.21.07.67.26,1.37.56,2.09s.72,1.47,1.25,2.25c.53.78,1.18,1.58,1.95,2.42,16.3-7.84,33.01-14.93,48.75-23.76,11.7-6.56,22.14-15.37,33.14-23.18.51-.36.93-.93,1.49-1.14,15.94-5.98,31.89-11.93,47.85-17.85.57-.21,1.41.1,1.84-.21,10.53-7.7,21.95-13.35,34.77-16.35,5.74-1.35,10.97-4.87,16.71-6.23,19.6-4.64,39.3-8.85,59.01-13.02,4.85-1.03,9.85-1.42,14.81-1.85,21.42-1.86,42.83-3.92,64.29-5.27,7.39-.46,14.88,1.03,22.34,1.44,12.93.72,25.89,1.06,38.8,2.06,4.6.36,9.04,2.45,13.65,3.18,2.65.42,7.1.69,7.95-.69,4.82-7.84,10.76-3.66,16.54-2.43,11.84,2.5,23.84,4.41,35.52,7.54,9.62,2.58,18.81,6.74,28.3,9.87,5.35,1.77,10.26,5.22,16.77.75,2.47-1.7,8.86,1.04,12.85,3.01,17.4,8.58,34.06,18.84,51.94,26.19,26.74,10.99,49.07,28.48,71.9,45.31,4.05,2.98,5.95,8.82,9.05,13.19,1.53,2.15,3.29,4.3,5.39,5.86,6.17,4.59,12.9,8.48,18.8,13.37,10.57,8.78,21.36,17.45,30.84,27.34,10.96,11.44,20.88,23.92,30.73,36.37,5.35,6.77,9.91,14.23,14.26,21.71,2.41,4.15,3.62,9,5.42,13.52,1.38,3.47,2.12,7.48,4.37,10.27,16.54,20.56,21.07,46.47,31.43,69.76,6.82,15.34,13.86,30.63,19.61,46.38,6.14,16.8,11,34.08,16.17,51.22,4.29,14.23,7.97,28.65,12.48,42.81,1.18,3.69,4.42,6.73,6.71,10.07,7.38-15.31,14.76-30.62,22.14-45.93.25-1.26.5-2.51.75-3.77,3.52-17.57,7.03-35.15,10.54-52.72h0c.14-4.41.28-8.82.42-13.23h0c-.11-.3-.16-.6-.14-.9.01-.3.09-.59.22-.88-.14-4.73-.28-9.46-.41-14.2-.1-3.45-.2-6.9-.3-10.36h0c-.5-.43-1.05-.84-1.61-1.24-.56-.4-1.13-.8-1.67-1.21Z"/>
      <path class="cls-2" d="M1694.29,1023.56c-3.14.99-6.59,1.46-9.37,3.07-5.01,2.9-9.8,6.26-14.36,9.84-11.19,8.77-29.09,6.47-36.2,21.99-.25.55-1.7.51-2.57.83-11.97,4.39-27.66,5.64-34.84,14.1-6.9,8.15-14.13,11.74-23.84,14.26,2.49,4.97,4.24,8.48,4.96,9.9-7.29,9.79-13.6,18.34-20.01,26.82-1.11,1.47-2.4,3.09-3.99,3.88-9.76,4.87-19.27,10.61-29.53,14.08-54.53,18.42-108.85,37.65-164.04,53.91-55.38,16.31-111.71,29.4-167.57,44.15-2.79.74-4.98,3.77-7.45,5.73,5.06,3.78,10.11,7.56,15.17,11.33,21.99,9.81,43.98,19.62,65.97,29.43,1.03-.58,2.04-1.23,3.05-1.9,3.03-2,6.02-4.13,9.33-4.92,90.85-21.74,180.35-48.05,268.92-77.7,18.28-6.12,37.18-11.02,56.17-14.19,13.44-2.25,27.53-.32,41.31-.87,7.7-.31,15.36-1.84,23.03-2.86,16.79-2.25,33.42-8.98,50.49-4.21,11.66,3.26,22.71,8.69,34,13.22,13,5.21,25.97,10.51,38.95,15.78h0c17.97-17.87,36.98-34.85,54.1-53.46,2.45-2.66,4.85-5.35,7.22-8.08,15.84-18.32,29.54-37.92,41.44-58.56,10.19-17.69,19.06-36.14,26.79-55.2,3.87-9.53,7.45-19.21,10.78-29.03-3.89.86-7.82,1.56-11.65,2.6-5.37,1.46-10.63,3.37-16.03,4.74-18.26,4.64-37.22,7.44-54.64,14.21-14.32,5.56-27.19,3.1-40.9.89-6.81-1.1-14.09-2.53-20.64-1.22-10.25,2.06-19.99,6.53-30.07,9.52-3.49,1.04-8.02,2.16-10.99.83-6.35-2.85-12.8-5.2-19.35-7.1-4.37-1.27-8.78-2.33-13.25-3.19-2.23-.43-4.47-.82-6.73-1.16-4.51-.67-9.07-1.16-13.67-1.46h0Z"/>
      <path class="cls-1" d="M1752.94,1193.43c-11.29-4.53-22.35-9.96-34-13.22-17.07-4.77-33.71,1.96-50.49,4.21-7.67,1.03-15.33,2.56-23.03,2.86-13.78.55-27.87-1.37-41.31.87-19,3.17-37.89,8.07-56.17,14.19-88.57,29.64-178.07,55.96-268.92,77.7-3.31.79-6.31,2.92-9.33,4.92-1.01.67-2.02,1.32-3.05,1.9,10.43,3.88,21.01,7.11,31.7,9.87,4.27,1.1,8.57,2.13,12.87,3.08,6.46,1.44,12.95,2.73,19.47,3.91,4.34.79,8.7,1.52,13.06,2.22,8.72,1.4,17.48,2.64,26.25,3.82,9.12,1.23,18.27,2.23,27.43,3.16,9.16.94,18.33,1.81,27.48,2.78,5.94.2,11.88.46,17.82.68,5.94.22,11.88.42,17.82.5,64.15.86,127.66-3.14,188.59-25.8,11.33-4.22,22.58-8.68,33.86-13.03,28.79-16.65,57.58-33.29,86.37-49.94h0c.63-.41,1.26-.82,1.89-1.23,1.9-1.42,3.8-2.85,5.7-4.27,1.31-1.06,2.62-2.11,3.93-3.17,1.85-1.4,3.7-2.8,5.55-4.19,1.82-2.02,3.65-4.03,5.47-6.06-12.99-5.27-25.95-10.57-38.95-15.78Z"/>
      <path class="cls-4" d="M1682.99,1278.07c.11.79.16,1.53.16,2.23,0,.05-.01.1-.01.15-.02,1.34-.22,2.55-.63,3.64-1.05,2.85-3.4,5.02-6.91,7.28-15.53,10.02-29.62,22.3-45.36,31.92-15.05,9.2-31.52,16.05-47.25,24.15-5.99,3.08-11.94,6.25-17.87,9.43-5.94,3.19-11.86,6.4-17.8,9.57-2.46,1.56-4.89,3.16-7.34,4.73s-4.91,3.12-7.42,4.58c-5.18,3.01-10.5,5.81-15.87,8.46-4.69,2.31-9.45,4.55-14.35,6.33-9.06,3.29-18.12,6.71-27.42,9.18-18.5,4.92-37.11,9.44-55.76,13.74-13.86,3.2-27.74,6.65-41.81,8.46-18.21,2.35-36.59,3.52-54.94,4.55-12.06.68-24.2.49-36.29.2-24.16-.58-48.28-.94-72.02-6.94-21.38-5.41-43.2-9.1-64.65-14.24-15.11-3.62-29.94-8.38-44.9-12.63,1.73,1.3,3.31,3.01,5.09,4.15.59.38,1.21.7,1.86.92,13.29,4.5,26.74,8.51,40.09,12.83,49.86,16.15,100.39,28.66,153.23,29.36,25.69.34,51.51,2.97,77.03,1.21,30.96-2.13,61.83-6.88,92.43-12.29,19.52-3.45,38.69-9.48,57.61-15.6,22.84-7.39,45.39-15.75,67.81-24.35,14.82-5.69,29.18-12.55,43.75-18.88.14-9.73,8.4-11.31,14.8-14.79,3.49-1.9,7.24-3.53,10.29-6.01,4.83-3.94,9.18-8.47,13.71-12.78,2.22-2.1,5.63-3.9,6.35-6.44,2.41-8.52,9.25-11.89,15.82-16.13,3.42-2.21,8.25-6.11,8.18-9.14-.2-8.89,5.67-10.77,11.63-13.65,3.18-1.53,7.96-3.68,8.4-6.19,1.29-7.29,6.48-10.01,11.63-13.47,4.16-2.8,7.99-5.81,5.24-12.26-2.19-5.11.84-8.31,5.58-11.13,3.27-1.95,6.54-4.03,9.13-6.63,2.96-2.97,5.03-6.63,5.21-11.56.02-.62.01-1.25-.02-1.91-28.79,16.65-57.58,33.29-86.37,49.94Z"/>
      <path class="cls-7" d="M661.06,799.66c-27.63-25.39-55.48-50.54-83.22-75.81-1.39-1.27-2.77-2.58-3.97-4.02-4.03-4.87-2.85-7.95,3.36-8.97,3.07-.5,6.18-.89,9.29-1.01,14.94-.58,28.52-9.87,44.11-6.77,2.15.43,5.4-.54,6.98-2.07,7.11-6.89,15.04-5.51,23.66-4.11,7.44,1.21,14.89,2,22.44-2.92,3.81-2.49,10.9-.96,16.24.08,23.38,4.56,47.96.51,70.64,9.92,18.81-6.55,33.76,8.09,50.61,9.35,23.03,1.73,40.96,14.5,61.4,21.59,17.59,6.1,34.48,12.6,49.2,24.1,2.35,1.84,4.68,3.7,9.28,7.34-12.99,5.39-23.86,9.9-34.74,14.41.14.51.28,1.03.42,1.54,6.53-1.03,13.16-1.64,19.56-3.19,10.95-2.64,21.65-3.68,31.46,3.14,3.44,2.39,6.15,5.79,9.33,8.58,12.66,11.11,25.5,22.01,37.97,33.33,3.09,2.8,5.02,6.86,7.52,10.32,6.88,9.52,13.56,19.2,20.81,28.43,2.46,3.13,7,4.59,9.58,7.66,8.64,10.29,14.45,21.79,17.5,35.26,1.59,7.02,8.54,12.7,12.28,19.42,1.55,2.8.65,6.85,1.54,10.15,2.23,8.25,3.67,17.02,7.61,24.43,5.89,11.08,9.39,22.26,9.65,34.81.12,5.45,1.92,10.98,3.66,16.24,3.61,10.89,7.88,21.57,11.52,32.45,2.35,7.01,3.31,14.56,6.28,21.26,4.27,9.66,10.14,18.59,14.64,28.16,2.46,5.23,3.42,11.16,5.23,16.72.64,1.96,1.46,5.07,2.76,5.4,10.8,2.7,9.72,12.2,12.47,19.83,1.5,4.16,5.02,10.24,8.23,10.64,9.73,1.21,8.91,6.51,7.93,13.31-.32,2.25,1.2,4.76,1.89,7.16,12.26-18.93,24.51-37.87,36.76-56.81-2.29-3.34-5.53-6.38-6.71-10.07-4.51-14.16-8.19-28.58-12.48-42.81-5.17-17.14-10.04-34.42-16.17-51.22-5.75-15.75-12.79-31.04-19.61-46.38-10.36-23.29-14.89-49.19-31.43-69.76-2.24-2.79-2.99-6.8-4.37-10.27-1.8-4.52-3.01-9.36-5.42-13.52-4.35-7.48-8.9-14.94-14.26-21.71-9.85-12.45-19.76-24.93-30.73-36.37-9.48-9.89-20.27-18.57-30.84-27.34-5.9-4.9-12.63-8.79-18.8-13.37-2.1-1.56-3.86-3.71-5.39-5.86-3.1-4.37-5-10.2-9.05-13.19-22.84-16.82-45.16-34.32-71.9-45.31-17.88-7.35-34.54-17.61-51.94-26.19-3.99-1.97-10.37-4.71-12.85-3.01-6.5,4.47-11.41,1.01-16.77-.75-9.49-3.13-18.68-7.29-28.3-9.87-11.67-3.13-23.67-5.04-35.52-7.54-5.79-1.22-11.73-5.41-16.54,2.43-.85,1.38-5.3,1.11-7.95.69-4.61-.73-9.05-2.82-13.65-3.18-12.91-1-25.87-1.34-38.8-2.06-7.46-.42-14.95-1.91-22.34-1.44-21.45,1.35-42.86,3.41-64.29,5.27-4.95.43-9.96.82-14.81,1.85-19.71,4.17-39.41,8.38-59.01,13.02-5.74,1.36-10.97,4.89-16.71,6.23-12.82,3.01-24.23,8.65-34.77,16.35-.43.32-1.28,0-1.84.21-15.96,5.92-31.91,11.87-47.85,17.85-.56.21-.98.78-1.49,1.14-11,7.81-21.44,16.62-33.14,23.18-15.74,8.83-32.46,15.92-48.75,23.76-2.52,2.52-5.04,5.03-7.55,7.55-5.65,3.76-11.29,7.53-16.94,11.29-.13.23-.26.48-.39.72-.7,1.31-1.33,2.72-1.97,4.12-.42.91-.85,1.8-1.31,2.65-.37.69-.76,1.36-1.2,1.96-.65.89-1.37,1.65-2.23,2.21-12.83,8.4-13.38,8.84-2.11,19.55,16.33,15.51,33.05,30.61,49.56,45.92,18.13,16.81,36.08,33.8,54.34,50.46,33.71,30.78,67.68,61.26,101.34,92.09,20.31,18.6,40.12,37.75,60.4,56.38,1.41,1.3,2.88,2.53,4.39,3.73,1.8,1.43,3.64,2.79,5.51,4.15,2.83,2.05,5.69,4.07,8.46,6.18,35.06-71.73,82.57-134.14,140.96-188.41-9.89-8.51-20.01-16.76-29.61-25.58-19.82-18.21-39.24-36.86-59.06-55.08Z"/>
      <path class="cls-9" d="M333.97,778.61c5.65-3.76,11.29-7.53,16.94-11.29,2.52-2.52,5.04-5.04,7.55-7.55-.77-.83-1.42-1.64-1.95-2.42-.53-.78-.95-1.53-1.25-2.25-.3-.72-.49-1.42-.56-2.09-.37-3.35,2.1-6.05,7.22-8.21,5.52-2.32,10.87-4.49,10.31-12.52-.13-1.9,4.51-4.29,7.15-6.2,6.33-4.59,12.51-9.49,19.27-13.35,4.74-2.7,10.55-3.48,15.47-5.93,2.62-1.3,6.3-4.5,6.15-6.59-.56-7.75,4.18-9.45,9.9-11.21,6.14-1.89,11.45-3.74,14.61-11.24,1.78-4.22,10.25-5.78,15.87-8.17,12.18-5.18,26.32-7.86,36.11-15.89,7.96-6.53,15.05-10.73,24.81-11.41.29-.02.68-.16.84-.38,7.96-10.53,19.19-10.7,30.98-10.66,5.72.02,5.67-3.79-.87-13.57,8.84-8.43,21.1-4.14,31.84-8.02-4.04-5.8-7.8-11.21-13.06-18.76,6.62-1.08,11.34-1.42,15.79-2.69,4.93-1.4,9.62-3.66,14.42-5.54-2.61.39-5.22.77-7.83,1.14-18.28,2.59-36.64,4.81-54.7,8.52-13.9,2.86-27.31,8.26-40.81,12.88-17.99,6.15-35.87,12.64-53.8,18.98-.58.21-1.28.17-1.81.45-12.76,6.84-25.33,14.07-38.32,20.44-9.96,4.88-20.44,8.68-30.7,12.96h0c-1.25.78-2.51,1.56-3.77,2.33-2.52,1.55-5.04,3.09-7.52,4.68-1.24.8-2.47,1.61-3.69,2.44-2.49,1.7-4.64,3.91-6.81,6.03-3.82,3.74-7.33,7.85-11.38,11.31-2.56,2.19-6.22,3.09-8.82,5.25-11.05,9.17-21.34,19.35-32.98,27.67-7.7,5.51-13.82,10.56-18.6,19.57-4.59,8.64-13.49,14.57-18.84,24.51-6.32,11.72-20.8,18.92-31.27,28.6-2.48,2.3-4.98,7.21-4.17,9.94,2.25,7.57-.8,11.6-6.23,15.96-3.34,2.69-7.63,7.13-7.5,10.63.31,8.25-4.29,11.25-9.95,15.2-3.42,2.39-5.28,7.35-7.18,11.46-1.92,4.15-2.13,9.31-4.68,12.89-4,5.6-11.78,9.14-7.33,18.23.49,1-1.04,3.58-2.27,4.75-6.81,6.47-13.7,12.75-13.7,23.28,0,1.35-1.37,2.77-2.28,4.02-4.23,5.82-14.17,9.35-11.03,18.04,2.29,6.34,8.21,11.71,13.36,16.63,18.76,17.94,37.75,35.65,56.89,53.19,34.79,31.88,69.83,63.49,104.62,95.37,19.14,17.54,37.89,35.5,56.99,53.08,37.26,34.29,74.65,68.44,111.98,102.65,15.21,13.94,30.34,27.96,45.7,41.74.47.42,1.01.76,1.61,1.05.8.39,1.68.67,2.59.94.24.07.48.14.72.21.54.15,1.07.31,1.6.48.06.02.11.04.17.06.27.09.54.18.79.28t0,0c.04-1.22.07-2.45.11-3.67.49-4.38.98-8.76,1.47-13.14.83-10.73,1.67-21.46,2.5-32.19.49-1.28.97-2.57,1.46-3.85.14-1.85.28-3.7.43-5.55,4.62-22.06,7.55-44.65,14.25-66.06,10.59-33.84,23.72-66.89,35.75-100.28.83-2.31,1.51-4.68,2.26-7.03-2.78-2.11-5.64-4.12-8.46-6.17-1.86-1.35-3.71-2.72-5.51-4.15-1.51-1.2-2.98-2.43-4.39-3.73-20.29-18.63-40.09-37.78-60.4-56.38-33.66-30.83-67.63-61.31-101.34-92.09-18.25-16.67-36.21-33.66-54.34-50.46-16.52-15.31-33.23-30.41-49.57-45.92-11.28-10.71-10.72-11.14,2.11-19.55.86-.56,1.59-1.32,2.23-2.21.43-.6.82-1.27,1.2-1.96.46-.85.89-1.74,1.31-2.65.64-1.4,1.27-2.81,1.96-4.12.13-.24.25-.49.39-.72"/>
      <path class="cls-4" d="M462.1,578.86c17.11-5.66,33.89-12.52,51.29-17.03,18.88-4.9,38.29-7.83,57.51-11.36,14.6-2.68,29.21-6.31,43.95-7.09,30.09-1.59,60.27-1.46,90.4-2.21,16.99-.43,34.02-2.25,50.96-1.54,15.91.67,31.39,4.86,47.74,4.78,7.08-.03,14.17,1.56,21.26,3.61,7.09,2.05,14.18,4.55,21.27,6.33-.6-.64-1.16-1.39-1.73-2.11-.95-1.21-1.91-2.37-3.15-2.84-7.85-3.05-15.76-6.18-23.93-8.15-23.89-5.76-47.81-11.51-71.92-16.26-36.13-7.13-72.6-12.39-109.53-11.88-23.71.33-47.58.84-71.04,3.9-32.66,4.27-64.99,11-97.47,16.68-8.02,3.11-16,6.32-24.06,9.32-11.25,4.19-22.56,8.24-33.84,12.35.32.91.63,1.82.95,2.72,6.73-1.85,13.41-4.88,20.21-5.22,7.53-.38,13.2,4.13,15.96,12.92-8.36,3.39-16.39,6.65-24.59,9.98,2.4,3.13,4.42,5.78,6.3,8.24,1.13,1.48,2.21,2.89,3.29,4.31,10.05-3.14,20.15-6.14,30.15-9.45Z"/>
      <path class="cls-10" d="M768.56,1077.86c1.55,7.32,2.61,14.78,4.74,21.93,1.44,4.83,2.91,9.65,4.4,14.47,4.46,14.45,9.09,28.85,13.61,43.28h0c2.18-1.38,4.37-2.75,6.55-4.13-11.77-28.06-19.31-57.17-24.51-86.86-1.73-9.9-3.21-19.86-4.49-29.87,0,0,0,0,0,0h0c-2-1.07-4-2.15-6-3.22,0,0,0,0,0,0,0,0,0,0,0,0-.37,2.74-1.42,5.59-.98,8.19.5,3.03,1.03,6.05,1.57,9.07,1.63,9.06,3.42,18.09,5.12,27.13,0,0,0,0,0,0Z"/>
      <path class="cls-7" d="M827.06,956.11c6.82,18.39,15.37,36.14,22.04,54.58,4.05,11.2,5.56,23.3,8.95,34.78,2.96,10.05,6.42,20.03,10.6,29.63,9.1,20.96,17.45,42.43,28.65,62.25,10.17,17.99,23.74,34.06,35.77,51.01,12.88,18.14,31.5,29.81,48.51,43.31,1.64,1.3,2.69,3.34,4.04,5,4.18,5.14,7.5,11.48,12.7,15.2,33.53,23.96,69.81,42.75,108.85,56.16,13.31,4.57,26.21,10.51,39.73,14.28,21.26,5.94,42.89,10.57,64.36,15.74.6.14,1.3.26,1.87.09,20.19-5.9,39.82,4.36,59.95,2.11,5.43-.61,11.16,1.82,16.69,1.55,19.48-.94,39.51-.08,58.2-4.58,12.38-2.98,24.33-3.88,36.65-5.04,4.06-.38,7.51-5.41,11.7-6.48,6.58-1.68,13.53-2.2,20.36-2.48,5.29-.22,8.56-1.63,8.2-7.52-9.15-.98-18.32-1.85-27.48-2.78-9.16-.94-18.31-1.93-27.43-3.16-8.77-1.18-17.53-2.42-26.25-3.82-4.36-.7-8.72-1.44-13.06-2.22-6.52-1.18-13.01-2.47-19.47-3.91-4.31-.96-8.6-1.98-12.87-3.08-10.69-2.75-21.27-5.98-31.7-9.87h0c-21.99-9.81-43.98-19.62-65.97-29.43h0c-1.23,1.14-2.56,3.33-3.68,3.23-4.94-.44-9.94-1.11-14.69-2.48-19.1-5.54-38.49-10.4-57.03-17.46-12.36-4.7-28.18-6.19-32.3-23.25-.38-1.56-3.12-2.72-4.95-3.73-10.81-5.95-22.97-10.25-32.25-18.01-18.81-15.74-36.31-33.09-53.86-50.27-6.6-6.47-13.47-13.55-17.36-21.71-9.19-19.26-17.18-39.13-24.64-59.14-5.41-14.51-9.43-29.55-13.61-44.49-1.35-4.85-.26-10.45-1.94-15.11-4.82-13.33-10.86-26.22-15.72-39.55-4.81-13.21-8.12-26.74-14.67-39.58-11.55-22.64-20.44-46.64-30.86-69.87-2.52-5.61-9.04-10.25-9.58-15.75-1.16-11.81-9.95-15.88-17.35-21.81-1.16-.93-2.17-2.05-3.19-3.15-.34-.37-.68-.73-1.03-1.09-8.13,7.62-16.25,15.24-24.38,22.86-.59,1.04-1.16,2.08-1.74,3.13-.58,1.04-1.17,2.08-1.8,3.09-7.11,11.36-14.26,22.71-21.39,34.05,3.28,10.93,6.48,21.87,9.85,32.77,4.75,15.37,9,30.92,14.58,45.98Z"/>
      <path class="cls-15" d="M780.77,981.08c2.58,14.39,5.21,28.88,9.48,42.82,3.72,12.14,9.57,23.65,14.73,35.33,10.39,23.52,19.43,47.82,31.92,70.18,10.73,19.18,25.16,36.36,38.58,53.95,11.88,15.58,24.02,31.04,37.18,45.52,9.16,10.09,19.38,19.7,30.63,27.32,30.98,20.99,61.94,42.26,94.43,60.73,35.25,20.03,72.8,35.34,111.46,48.38,32.07,10.82,64.82,14.32,97.86,18.41,19.04,2.35,37.63,8.41,56.67,10.74,16.2,1.98,32.76,1.41,49.15,1.19,8.97-.12,17.9-2.05,26.88-2.77,23.91-1.93,48.74-.24,71.51-6.32,27.23-7.27,55.4-9.86,82.17-18.72,4.31-1.43,9.24-.97,13.89-1.38h0c5.94-3.17,11.87-6.38,17.8-9.57,5.94-3.19,11.88-6.35,17.87-9.43,15.74-8.1,32.2-14.96,47.25-24.15,15.74-9.62,29.84-21.9,45.36-31.92,3.51-2.27,5.86-4.44,6.91-7.28.41-1.1.61-2.3.63-3.64,0-.05.01-.1.01-.15,0-.7-.05-1.45-.16-2.23h0c-11.28,4.35-22.53,8.81-33.86,13.03-60.93,22.66-124.44,26.66-188.59,25.8-5.94-.08-11.88-.27-17.82-.5-5.94-.22-11.88-.48-17.82-.68.36,5.9-2.91,7.3-8.2,7.52-6.83.29-13.78.8-20.36,2.48-4.2,1.07-7.65,6.1-11.7,6.48-12.31,1.16-24.27,2.06-36.65,5.04-18.69,4.5-38.72,3.64-58.2,4.58-5.53.27-11.25-2.16-16.69-1.55-20.13,2.25-39.76-8.02-59.95-2.11-.57.17-1.27.05-1.87-.09-21.48-5.17-43.1-9.8-64.36-15.74-13.52-3.77-26.42-9.71-39.73-14.28-39.04-13.4-75.32-32.2-108.85-56.16-5.2-3.72-8.52-10.06-12.7-15.2-1.36-1.67-2.4-3.7-4.04-5-17.01-13.5-35.64-25.17-48.51-43.31-12.03-16.95-25.6-33.02-35.77-51.01-11.2-19.82-19.55-41.29-28.65-62.25-4.17-9.61-7.63-19.58-10.6-29.63-3.39-11.48-4.9-23.58-8.95-34.78-6.67-18.44-15.23-36.19-22.04-54.58-5.58-15.06-9.83-30.62-14.58-45.98-3.37-10.9-6.57-21.85-9.85-32.77-1.46,1.97-3.19,3.8-4.34,5.94-15.11,27.92-25.25,57.44-28.3,89.2,6.33-.58,9.57,1.81,10.78,8.57Z"/>
      <path class="cls-14" d="M1104.53,1392.88c14.96,4.25,29.79,9.02,44.9,12.63,21.46,5.14,43.27,8.83,64.65,14.24,23.74,6,47.86,6.36,72.02,6.94,12.09.29,24.22.48,36.29-.2,18.35-1.03,36.73-2.2,54.94-4.55,14.07-1.81,27.95-5.26,41.81-8.46,18.65-4.31,37.26-8.82,55.76-13.74,9.3-2.47,18.36-5.89,27.42-9.18,4.91-1.78,9.66-4.02,14.35-6.33,5.38-2.65,10.69-5.45,15.87-8.46,2.51-1.46,4.98-3.01,7.42-4.58,2.45-1.57,4.88-3.17,7.34-4.73-4.65.41-9.58-.04-13.89,1.38-26.77,8.86-54.94,11.45-82.17,18.72-22.77,6.08-47.61,4.39-71.51,6.32-8.98.72-17.91,2.65-26.88,2.77-16.39.21-32.95.79-49.15-1.19-19.04-2.33-37.63-8.39-56.67-10.74-33.04-4.08-65.79-7.59-97.86-18.41-38.66-13.04-76.21-28.34-111.46-48.38-32.49-18.47-63.45-39.74-94.43-60.73-11.24-7.62-21.46-17.23-30.63-27.32-13.16-14.48-25.3-29.95-37.18-45.52-13.42-17.59-27.85-34.77-38.58-53.95-12.5-22.36-21.53-46.66-31.92-70.18-5.16-11.68-11.01-23.19-14.73-35.33-4.27-13.94-6.9-28.43-9.48-42.82-1.21-6.76-4.45-9.15-10.78-8.57-.39,1.96-.78,3.91-1.16,5.87-.1,1.21-.2,2.42-.3,3.63.11,18.23.22,36.46.33,54.69,1.29,10.01,2.76,19.97,4.49,29.87,5.2,29.69,12.74,58.8,24.51,86.86,9.39,18.13,18.77,36.28,28.22,54.38.84,1.61,2.17,2.97,3.27,4.45,1.33.06,3.03-.28,4.22-.07.4.07.74.2,1,.43,10.14,9.16,19.68,19.02,30.1,27.83,25.97,21.93,51.45,44.59,78.77,64.72,23.51,17.32,48.83,32.38,74.23,46.88,19.45,11.1,40.27,19.79,60.49,29.55,3.14,1.87,6.29,3.75,9.43,5.62,1.25.01,2.51.02,3.76.03,2.52,1.87,5.03,3.75,7.55,5.62,1.88.01,3.76.02,5.64.03Z"/>
      <path class="cls-21" d="M977.96,1403.41c7.45,5.55,15.08,10.89,22.88,16.02,3.18-4.8,6.47-9.53,9.5-14.43,3.32-5.37,6.4-10.9,9.59-16.36h0c-1.57-1-3.15-1.99-4.73-2.99-1.58-1-3.14-2.01-4.69-3.05-25.77-17.38-51.51-34.79-77.27-52.19-5.9,5.85-11.81,11.7-17.72,17.55,19.27,20.32,40.08,38.81,62.44,55.45Z"/>
      <path class="cls-22" d="M843.07,1260.01c1.62,2.56,3.27,5.1,4.97,7.6,7.43,10.88,15.14,21.53,23.24,31.85,13.5,17.21,28.09,33.51,44.24,48.5,5.91-5.85,11.81-11.7,17.72-17.55-3.16-2.98-6.4-5.89-9.48-8.96-16.73-16.63-33.93-32.83-49.96-50.1-11.84-12.76-22.15-26.94-33.14-40.48-3.91,1.94-7.82,3.88-11.73,5.82,4.76,7.74,9.3,15.64,14.15,23.32Z"/>
      <path class="cls-19" d="M826.07,1207.79c-9.45-18.11-18.82-36.25-28.22-54.38-2.18,1.38-4.37,2.75-6.55,4.13,12.54,26.38,25.08,52.76,37.62,79.15,3.91-1.94,7.82-3.88,11.73-5.82-.21-.35-.43-.7-.64-1.05-3.56-5.86-7.12-11.71-10.68-17.57h0s0,0,0,0c-1.1-1.48-2.43-2.84-3.27-4.45Z"/>
      <path class="cls-26" d="M1185.48,1246.11c-17.25-13.76-30.79-29.88-28-53.62,1.07-9.1,5.7-17.79,8.7-26.68-.68-2.4-2.21-4.92-1.89-7.16.98-6.79,1.8-12.1-7.93-13.31-3.21-.4-6.73-6.48-8.23-10.64-2.75-7.62-1.66-17.13-12.47-19.83-1.3-.33-2.12-3.44-2.76-5.4-1.81-5.56-2.77-11.49-5.23-16.72-4.5-9.57-10.37-18.51-14.64-28.16-2.96-6.7-3.93-14.25-6.28-21.26-3.65-10.88-7.91-21.56-11.52-32.45-1.74-5.26-3.55-10.79-3.66-16.24-.27-12.55-3.77-23.73-9.65-34.81-3.93-7.41-5.37-16.18-7.61-24.43-.89-3.3.01-7.35-1.54-10.15-3.74-6.72-10.69-12.4-12.28-19.42-3.05-13.47-8.86-24.97-17.5-35.26-2.58-3.07-7.12-4.53-9.58-7.66-7.26-9.23-13.93-18.91-20.81-28.43-2.5-3.46-4.43-7.52-7.52-10.32-12.47-11.31-25.31-22.22-37.97-33.33-3.18-2.79-5.89-6.19-9.33-8.58-9.81-6.82-20.51-5.78-31.46-3.14-6.41,1.54-13.04,2.15-19.56,3.19-.14-.51-.28-1.03-.42-1.54,10.87-4.51,21.74-9.02,34.74-14.41-4.6-3.64-6.93-5.51-9.28-7.34-14.72-11.5-31.61-18-49.2-24.1-20.44-7.09-38.37-19.87-61.4-21.59-16.86-1.26-31.8-15.9-50.61-9.35-22.67-9.41-47.26-5.36-70.64-9.92-5.35-1.04-12.43-2.57-16.24-.08-7.55,4.92-15,4.13-22.44,2.92-8.62-1.4-16.55-2.79-23.66,4.11-1.58,1.53-4.83,2.5-6.98,2.07-15.58-3.1-29.17,6.19-44.11,6.77-3.1.12-6.22.51-9.29,1.01-6.2,1.01-7.39,4.1-3.36,8.97,1.2,1.45,2.57,2.76,3.97,4.02,27.74,25.27,55.59,50.42,83.22,75.81,19.82,18.21,39.24,36.87,59.06,55.08,9.6,8.82,19.72,17.07,29.61,25.58,2.42-1.91,4.78-3.92,7.29-5.72,30.92-22.15,61.83-44.33,92.88-66.3,3.06-2.16,7.03-3.03,10.57-4.5.32.65.63,1.31.95,1.97-3.16,2.83-6.32,5.65-9.48,8.48.35.35.69.72,1.03,1.09,1.02,1.1,2.03,2.22,3.19,3.15,7.41,5.92,16.19,10,17.35,21.81.54,5.49,7.07,10.14,9.58,15.75,10.42,23.24,19.31,47.23,30.86,69.87,6.55,12.84,9.85,26.37,14.67,39.58,4.85,13.32,10.9,26.21,15.72,39.55,1.68,4.66.59,10.27,1.94,15.11,4.17,14.94,8.19,29.98,13.61,44.49,7.47,20,15.46,39.88,24.65,59.14,3.89,8.16,10.76,15.24,17.36,21.71,17.55,17.19,35.05,34.54,53.86,50.27,9.28,7.76,21.44,12.06,32.25,18.01,1.83,1.01,4.57,2.17,4.95,3.73,4.12,17.05,19.94,18.54,32.3,23.25,18.54,7.06,37.93,11.91,57.03,17.46,4.75,1.38,9.75,2.04,14.69,2.48,1.12.1,2.45-2.09,3.68-3.23-5.06-3.78-10.11-7.56-15.17-11.33Z"/>
      <path class="cls-32" d="M1000.94,60.28c518.13-.24,938.47,420.74,938.78,940.23.32,519.08-419.96,939.44-939.01,939.21-519.52-.23-940.75-420.68-940.43-938.7C60.59,481.38,481.41,60.52,1000.94,60.28ZM537.82,1363.05c-7.83-49.25-17.4-99.75-23.5-150.66-6.11-50.98-8.77-102.37-12.96-153.82H177.7c7.64,144.85,65.94,302.87,139.56,403.04,73.75-32.95,146.94-65.65,220.57-98.55ZM1821.24,1058.39h-318.74c-12.28,103.04-24.41,204.82-36.29,304.47,70.87,31.8,144.3,64.76,218.37,98,72.49-94.62,146.07-308.86,136.65-402.47ZM534.93,636.3c-70.41-31.38-143.62-64-218.7-97.45-80.97,119.86-128.04,254.55-138.93,402.71h320.81c12.41-102.91,24.63-204.21,36.81-305.26ZM1466.01,637.77c12,99.76,24.25,201.56,36.53,303.68h320.91c-11.2-148.58-58.02-282.97-138.35-401.69-75.42,33.74-148.58,66.46-219.1,98ZM1382.97,942.53c-2.55-94.64-13.42-186.1-32.95-277.34-3.16.5-5.28.74-7.37,1.18-88.97,18.81-178.77,31.6-269.68,35.42-13.18.55-15.91,5.78-15.82,17.8.5,69.79.25,139.58.35,209.38,0,4.32.8,8.63,1.29,13.56h324.18ZM1057.67,1293.27c98.61,12.99,195.15,25.7,293.02,38.59,19.04-88.52,29.96-179.88,32.26-273.7h-325.28v235.11ZM941.99,1058.34h-323.51c-1.88,69.28,20.21,246.6,32.55,272.31,97.55-12.87,193.98-25.59,290.96-38.38v-233.93ZM617.71,941.58h324.34v-233.3c-97.58-12.8-194.1-25.45-292.31-38.33-18.69,87.11-29.19,178.18-32.03,271.63ZM1321.49,1447.04c-88.35-18.73-174.82-31.03-262.92-34.36v402.13c37.52-12.76,67.49-34.35,93.8-60.68,85.18-85.28,131.41-192.23,169.12-307.08ZM680.19,1448.17c18.18,60.08,41.17,117.03,70.35,171.42,32.43,60.46,70.92,116.46,126.13,158.54,19.41,14.79,41.68,25.83,64.71,39.83v-404.78c-60.46-2.1-218.07,18.82-261.19,34.99ZM941.75,588.95V185.98c-32.28,10.89-58.45,28.9-82.22,50.44-64.45,58.41-106.94,131.76-140.57,210.68-14.62,34.32-26.79,69.68-40.82,106.53,88.62,20.95,174.83,31.85,263.6,35.32ZM1058.17,588.88c89.41-5.79,176.38-15.33,262.76-35.69-20.5-66.81-45.94-129.61-79.84-188.69-30.59-53.32-66.18-102.85-115.42-140.98-20.09-15.56-40.92-29.94-67.49-36.98v402.35ZM1292.45,1770.41c123.41-45.49,228.49-117.03,320.9-217.51-61.88-27.21-120.03-52.78-180.22-79.24-34.3,108.29-76.8,207.39-140.69,296.75ZM1294,231.48c62.62,89.75,105.35,188.13,138,292.04,62.96-20.09,121.75-44.91,178.34-79.15-89.83-96.75-193.71-168.4-316.34-212.89ZM707.47,1769.79c-63.24-89.2-105.31-187.85-138.53-291.96-62.06,21.26-120.99,45.69-177.86,79.03,89.56,97,193.91,167.96,316.4,212.93ZM713.4,226.32c-126.53,48.42-232.13,119.57-322.13,217.69,57.16,33.03,115.79,58.23,177.92,78.52,32.98-105.77,76.56-204.4,144.2-296.21Z"/>
    </g>
    <g>
      <path class="cls-38" d="M974.57,1718.3c-1.44,19.31-4.53,39,16.39,51.48h7.22v-48.45c-8.15-.13-16.05-1.16-23.61-3.03Z"/>
      <path class="cls-8" d="M998.18,1513.16c-21.18.32-40.53,6.46-56.53,17.03-14.72,9.72-26.59,23.17-34.52,39.16-6.99,14.1-10.91,30.16-10.93,47.44-.05,49.43,33.02,90.27,78.36,101.51,7.56,1.87,15.46,2.9,23.61,3.03v-208.18Z"/>
      <path class="cls-38" d="M754.12,1077.78c80.51,20.85,161.94,30.28,244.06,30.11v-225.98c-57.9.02-115.7-5.65-173.28-17.52-27.32-5.63-54.38-12.35-81.04-20.69-.02.24-.05.47-.07.7-18.04-6.42-37.52-12.61-56.42-20.24-31.37-12.67-61.15-27.87-87.52-48.48-3.32-2.25-6.64-4.49-9.94-6.84-26.23-18.73-50.53-41.87-76.28-63.48h0c-.06.27-.12.54-.18.81-1.56,7.48-3.22,14.89-4.86,22.25,0,0,0,0,0,0-3.11,13.96-6.11,27.77-8.03,41.73-4.11,29.94-8.19,60.13-8.75,90.27-.26,13.98,1.64,26.97,5.21,39.17.66,2.27,1.4,4.51,2.18,6.73.2.57.43,1.14.64,1.71.08.21.17.42.25.63.55,1.48,1.12,2.96,1.72,4.42.22.53.45,1.05.67,1.58.77,1.78,1.57,3.54,2.41,5.29.17.35.33.69.5,1.04,0,0,0,0,0,0,1.26,2.57,2.62,5.08,4.03,7.57.55.98,1.14,1.93,1.71,2.9,1,1.69,2.03,3.36,3.1,5.01.65,1.01,1.33,2,2,3,1.07,1.57,2.16,3.13,3.29,4.68.73,1.01,1.48,2.01,2.23,3,1.15,1.5,2.32,2.99,3.52,4.47.79.98,1.59,1.96,2.4,2.92,1.24,1.47,2.51,2.91,3.79,4.35.83.93,1.66,1.87,2.51,2.8,1.35,1.46,2.74,2.9,4.14,4.34.84.86,1.66,1.73,2.52,2.59,1.56,1.56,3.16,3.09,4.77,4.61.73.7,1.45,1.4,2.19,2.09,2.37,2.2,4.79,4.38,7.26,6.52,57.6,49.99,126.7,77.15,199.26,95.94Z"/>
      <path class="cls-13" d="M883.9,311.09c-1.32,1.91-2.59,3.84-3.88,5.76-3.54,5.36-7.05,10.74-10.49,16.18-15.44,24.72-28.69,50.07-40.15,75.93-.1.22-.19.43-.29.65-2.76,6.25-5.41,12.52-7.97,18.83-.13.32-.26.65-.39.97-2.53,6.27-4.96,12.56-7.3,18.88-.12.32-.23.64-.35.96-2.35,6.38-4.61,12.78-6.78,19.21-.06.17-.11.35-.17.52-6.65,19.79-12.46,39.81-17.6,60.04-.05.21-.11.43-.17.64-1.62,6.42-3.17,12.86-4.67,19.32-.13.58-.27,1.15-.4,1.73-1.43,6.25-2.8,12.51-4.12,18.79-.16.77-.32,1.54-.48,2.3-1.28,6.17-2.52,12.36-3.7,18.57-.16.84-.32,1.69-.48,2.53-1.17,6.19-2.29,12.39-3.37,18.61-.14.8-.27,1.59-.41,2.39-1.08,6.32-2.13,12.64-3.14,18.98-.09.56-.17,1.12-.26,1.68-1.04,6.62-2.04,13.25-3,19.89-1.12,7.77-2.18,15.55-3.18,23.35-.3,2.33-.56,4.66-.85,6.99-.68,5.48-1.37,10.96-2.01,16.46-.21,1.8-.39,3.61-.6,5.41-.68,6.05-1.37,12.1-2.01,18.17-.05.48-.1.96-.15,1.43-3.06,28.98-5.73,58.19-8.65,87.75-.97,9.85-1.97,19.75-3.02,29.69,26.66,8.34,53.72,15.06,81.04,20.69,57.58,11.87,115.38,17.54,173.28,17.52V292.96s-.06,0-.09,0c-2.29,0-4.51-.33-6.63-.93-11.96-3.39-20.68-15.69-20.67-30.58,0-5.21,1.04-10.05,2.88-14.29.92-2.12,2.08-4.07,3.38-5.87-15.28.86-30.37,2.57-45.27,5.08-17.17,20.76-33.08,42.44-48.07,64.77.06-.02.13-.04.19-.07Z"/>
      <path class="cls-38" d="M970.79,261.46c-.01,14.89,8.71,27.2,20.67,30.58,2.12.6,4.34.92,6.63.93.03,0,.06,0,.09,0v-62.75c-5.78-.01-11.06,1.87-15.41,5.15-2.17,1.64-4.07,3.66-5.72,5.93-1.3,1.8-2.46,3.74-3.38,5.87-1.84,4.25-2.88,9.09-2.88,14.29Z"/>
      <path class="cls-29" d="M513.64,705.37c25.75,21.61,50.05,44.75,76.28,63.48,3.29,2.35,6.61,4.59,9.94,6.84-2.43-1.9-4.83-3.84-7.2-5.83,2.37,1.99,4.77,3.93,7.2,5.83h0c26.37,20.61,56.15,35.82,87.52,48.48,18.9,7.63,38.38,13.81,56.42,20.24.03-.24.05-.47.07-.7h0c1.05-9.94,2.05-19.83,3.02-29.69,2.92-29.56,5.59-58.77,8.65-87.75.05-.48.1-.96.15-1.43.64-6.07,1.32-12.12,2.01-18.17.2-1.8.39-3.61.6-5.41.64-5.5,1.32-10.98,2.01-16.46.29-2.33.55-4.66.85-6.99,1-7.79,2.06-15.58,3.18-23.35.96-6.64,1.97-13.27,3-19.89.09-.56.17-1.12.26-1.68,1-6.34,2.05-12.67,3.14-18.98.14-.8.27-1.6.41-2.39,1.08-6.22,2.21-12.42,3.37-18.61.16-.84.32-1.69.48-2.53,1.18-6.2,2.42-12.39,3.7-18.57.16-.77.32-1.54.48-2.3,1.32-6.28,2.69-12.54,4.12-18.79.13-.58.27-1.15.4-1.73,1.49-6.46,3.04-12.9,4.67-19.32.05-.21.11-.43.17-.64,5.13-20.23,10.95-40.26,17.6-60.04.06-.17.11-.35.17-.52,2.17-6.43,4.43-12.84,6.78-19.21.12-.32.23-.64.35-.96,2.34-6.32,4.77-12.61,7.3-18.88.13-.32.26-.65.39-.97,2.55-6.3,5.21-12.58,7.97-18.83.1-.22.19-.43.29-.65,14.87-33.57,32.76-66.27,54.53-97.86-.06.02-.13.04-.19.07,15-22.34,30.9-44.01,48.07-64.77-126.6,21.34-238.25,101.05-316.79,216.6-47.09,69.27-82.29,151.4-101.66,241.57.17-.03.32-.05.5-.08-.06.3-.13.6-.2.9Z"/>
      <path class="cls-38" d="M941.65,1530.2c-16.29-11.1-32.53-22.78-49.39-33.48-50.02-31.75-105.89-48.35-162.56-63.58-76.46-20.56-148.25-50.71-204.01-110.09-.23-.24-.52-.42-.77-.65l.04-.02h.04s-30.65-72.86-30.65-72.86c-4.32-2.29-8.58-4.67-12.84-7.06-.72-.4-1.45-.78-2.17-1.18-.15-.08-.29-.17-.44-.25-.09-.05-.18-.1-.27-.16-5.9-3.34-11.72-6.78-17.48-10.3-.12-.07-.23-.15-.35-.22-5.68-3.48-11.28-7.07-16.82-10.73,0,0,0,0,0,0-1.1-.72-2.21-1.42-3.31-2.16-.96-.65-1.89-1.34-2.84-2,0,0,0,0,0,0-3.82-2.61-7.59-5.27-11.33-7.97,0,0,0,0,0,0-.32-.23-.66-.45-.98-.69-.56-.41-1.11-.84-1.68-1.25-2.1-1.54-4.23-3.03-6.3-4.6l2.13,8.31,17.38,67.74c.06.16.13.31.19.47,1.1,2.91,2.27,5.76,3.46,8.58,10.64,25.07,25.04,46.47,42.16,66.12,1.26,1.44,2.56,2.81,3.84,4.23h0c40.26,45.74,92.23,76.52,149.81,99.3,34.42,13.62,70.14,24.43,105.97,33.88,60.54,15.97,116.01,41.59,164.64,79.79,7.92-15.99,19.8-29.44,34.52-39.16Z"/>
      <path class="cls-13" d="M423.85,1205.53c.88.65,1.77,1.3,2.66,1.94,3.74,2.71,7.51,5.37,11.33,7.97,2.04,1.4,4.08,2.79,6.15,4.16,5.53,3.67,11.14,7.24,16.82,10.73.12.07.23.15.35.22,5.75,3.53,11.58,6.97,17.48,10.3.09.05.18.1.27.16.86.49,1.75.95,2.61,1.44,53.49,29.92,109,52.96,166.07,70.52,77.17,23.74,157.19,37.52,238.99,44.83,37.22,3.33,74.43,4.96,111.61,5v-254.92c-82.13.17-163.55-9.26-244.06-30.11-72.56-18.79-141.66-45.96-199.26-95.94-2.47-2.14-4.89-4.32-7.26-6.52-.74-.69-1.46-1.4-2.19-2.09-1.61-1.53-3.21-3.06-4.77-4.61-.85-.85-1.68-1.72-2.52-2.59-1.4-1.44-2.79-2.88-4.14-4.34-.85-.92-1.68-1.86-2.51-2.8-1.28-1.44-2.56-2.89-3.79-4.35-.82-.97-1.61-1.95-2.4-2.92-1.2-1.48-2.37-2.96-3.52-4.47-.76-.99-1.5-1.99-2.23-3-1.13-1.54-2.22-3.1-3.29-4.68-.68-1-1.35-1.99-2-3-1.07-1.65-2.09-3.33-3.1-5.01-.57-.96-1.16-1.92-1.71-2.9-.26-.46-.56-.91-.81-1.37-1.13-2.04-2.19-4.11-3.22-6.2,0,0,0,0,0,0,0,0,0,0,0,0-1.97-4.01-3.73-8.12-5.3-12.32-.08-.21-.17-.42-.24-.63,0,0,0,0,0,0-1.02-2.77-1.98-5.57-2.82-8.43-3.56-12.19-5.46-25.18-5.21-39.17h0c.56-30.15,4.63-60.33,8.75-90.27,1.92-13.96,4.91-27.77,8.03-41.73,0,0,0,0,0,0,1.45-8.02,3.03-15.98,4.73-23.88-2.17.38-3.61.4-4.72.97-60.08,31.02-114.66,69.19-159.1,120.89-81.69,95.04-82.96,209.91-3.44,306.37,21.3,25.84,45.34,48.31,71.47,68.15,2.07,1.57,4.2,3.06,6.29,4.59,0,0,0,0,0,0Z"/>
      <path class="cls-23" d="M1025.25,1718.29c-8.16,2.03-16.71,3.11-25.53,3.1-.51,0-1.02-.04-1.53-.05v48.45h10.68c20.91-12.5,17.83-32.2,16.39-51.5Z"/>
      <path class="cls-25" d="M1059.11,1530.87c-16.57-11.24-36.81-17.74-59.04-17.77-.63,0-1.25.05-1.88.06v208.18c.51,0,1.02.05,1.53.05,8.83.01,17.37-1.07,25.53-3.1,45.22-11.24,78.32-51.94,78.36-101.14.01-17.5-3.97-33.77-11.08-48.02-7.75-15.53-19.23-28.64-33.42-38.26Z"/>
      <path class="cls-33" d="M1409.57,769.38c-3.7,2.59-7.42,5.09-11.15,7.57-27.62,21.28-59.07,36.57-91.82,49.75-4.72,1.9-9.51,3.67-14.32,5.39-1.39.5-2.81.98-4.21,1.46-3.9,1.36-7.82,2.71-11.77,4.03-6.43,2.28-12.89,4.45-19.37,6.52-.92.32-1.83.61-2.75.93,0-.02,0-.04,0-.06-50.37,15.81-102.09,25.26-154.43,31.16-33.87,3.82-67.73,5.76-101.55,5.78v225.98c34.76-.07,69.65-1.83,104.65-5.22,87.46-8.48,172.85-25.77,252.28-64.29,30.97-15.02,60.51-34.26,87.76-55.39,3.02-2.34,5.9-4.74,8.7-7.17.9-.78,1.75-1.58,2.63-2.36,1.88-1.69,3.72-3.39,5.49-5.12.96-.93,1.9-1.87,2.83-2.81,1.67-1.69,3.27-3.41,4.85-5.14.84-.92,1.69-1.84,2.5-2.77,1.93-2.22,3.78-4.48,5.57-6.76.49-.63,1-1.26,1.48-1.9,1.86-2.45,3.63-4.94,5.32-7.46.71-1.06,1.38-2.15,2.06-3.22,1.14-1.78,2.25-3.58,3.3-5.4.68-1.17,1.34-2.35,1.99-3.54,1.02-1.87,1.99-3.76,2.93-5.66.53-1.07,1.07-2.13,1.57-3.21,1.37-2.96,2.68-5.95,3.86-8.98.13-.33.25-.67.38-1,.39-1.02.73-2.06,1.09-3.09.42-1.16.85-2.32,1.24-3.49.19-.59.39-1.18.58-1.78.57-1.79,1.07-3.6,1.57-5.41.22-.79.48-1.56.68-2.36,3.87-14.93,5.62-30.67,5.28-47.17-.21-9.9-1.17-20.08-2.89-30.53-2.75-16.68-5.49-33.37-8.25-50.14-.21-1.64-.5-3.25-.72-4.89h0s-.09,0-.09,0c-2.57-15.62-5.15-31.32-7.76-47.16,0,0,0,0,0,0,0,0,0,0,0,0-.41-2.02-.85-4.03-1.27-6.04-.25-1.18-.49-2.36-.74-3.53h0c-27.03,22.72-51.21,46.1-77.52,64.49ZM1005.53,1057.27h0c.1,0,.2,0,.31,0-.1,0-.2,0-.3,0Z"/>
      <path class="cls-29" d="M1025.5,261.56c-.01,14.82-8.74,27.08-20.67,30.47-2.12.6-4.35.92-6.64.93v588.95c33.82-.01,67.68-1.96,101.55-5.78,52.35-5.9,104.06-15.35,154.43-31.16-.64-9.71-1.29-19.41-1.98-29.1-.14-1.96-.27-3.93-.41-5.89-.3-4.25-.62-8.5-.94-12.74-.12-1.57-.23-3.14-.35-4.71-.25-3.27-.51-6.52-.77-9.79-.2-2.56-.4-5.12-.61-7.68-.14-1.77-.3-3.55-.45-5.32-.34-4.04-.67-8.07-1.02-12.11-.07-.8-.15-1.6-.22-2.39-.44-5-.89-10-1.37-14.99-.01-.12-.03-.25-.04-.38-1.64-17.23-3.46-34.4-5.54-51.49-.2-1.63-.41-3.25-.62-4.87-.51-4.11-1.02-8.23-1.56-12.34-.17-1.26-.35-2.51-.52-3.77-.6-4.47-1.21-8.93-1.85-13.38-.12-.85-.26-1.7-.38-2.55-.71-4.85-1.43-9.7-2.18-14.54-.05-.34-.11-.68-.17-1.03-1.74-11.03-3.6-22.03-5.63-32.98-.23-1.24-.48-2.48-.72-3.73-.83-4.4-1.66-8.79-2.54-13.18-.33-1.64-.69-3.27-1.02-4.9-.82-3.98-1.63-7.97-2.49-11.94-.23-1.05-.48-2.09-.71-3.13-1-4.55-2.02-9.1-3.08-13.63-.35-1.5-.74-3-1.1-4.51-.98-4.07-1.95-8.14-2.98-12.19-.31-1.24-.66-2.46-.97-3.7-1.11-4.31-2.23-8.62-3.41-12.92-.37-1.34-.77-2.68-1.14-4.02-1.16-4.18-2.33-8.35-3.56-12.52-.23-.79-.48-1.57-.72-2.35-1.4-4.71-2.82-9.41-4.31-14.1-.65-2.05-1.35-4.09-2.01-6.13-1.11-3.41-2.2-6.83-3.36-10.23-.75-2.2-1.55-4.39-2.32-6.59-1.13-3.23-2.24-6.46-3.41-9.68-.67-1.84-1.4-3.67-2.08-5.51-1.33-3.56-2.64-7.12-4.03-10.67-3.78-9.67-7.8-19.27-12.02-28.84-.47-1.07-.91-2.15-1.39-3.22-1.19-2.66-2.45-5.31-3.68-7.97-1.22-2.64-2.4-5.28-3.65-7.91-1.3-2.73-2.68-5.44-4.02-8.16-1.25-2.53-2.46-5.08-3.74-7.6-1.53-3-3.13-5.99-4.71-8.98-1.17-2.23-2.31-4.47-3.51-6.69-4.65-8.6-9.6-17.12-14.69-25.61-1.46-2.43-2.87-4.87-4.36-7.3,0,0,0,0,0-.01-8.81-13.63-17.94-27.02-27.46-40.14-2.27-3.13-4.64-6.19-6.95-9.29-7.39-9.89-14.93-19.66-22.81-29.19-16.27-2.74-32.79-4.53-49.51-5.29,1.35,1.83,2.53,3.83,3.48,6,1.88,4.29,2.93,9.19,2.92,14.47Z"/>
      <path class="cls-23" d="M1004.83,292.04c11.93-3.39,20.66-15.65,20.67-30.47,0-5.27-1.05-10.17-2.92-14.47-.95-2.17-2.13-4.17-3.48-6-1.55-2.1-3.33-3.98-5.33-5.53-4.37-3.39-9.71-5.34-15.57-5.35v62.75c2.29,0,4.52-.32,6.64-.93Z"/>
      <path class="cls-34" d="M1098.37,284.86c9.52,13.12,18.65,26.52,27.46,40.15,0,0,0,0,0,0,0,0,0,0,0,0,1.49,2.42,2.9,4.86,4.36,7.29,5.09,8.49,10.04,17.01,14.69,25.61,1.2,2.22,2.33,4.46,3.51,6.69,1.58,2.99,3.18,5.97,4.71,8.98,1.28,2.52,2.49,5.07,3.74,7.6,1.34,2.72,2.72,5.43,4.02,8.16,1.25,2.63,2.44,5.28,3.65,7.91,1.23,2.66,2.49,5.3,3.68,7.97.48,1.07.92,2.15,1.39,3.22,4.21,9.56,8.24,19.17,12.02,28.84,1.39,3.55,2.7,7.11,4.03,10.67.69,1.84,1.41,3.67,2.08,5.51,1.18,3.22,2.28,6.45,3.41,9.68.77,2.2,1.57,4.39,2.32,6.59,1.16,3.4,2.25,6.82,3.36,10.23.67,2.05,1.36,4.08,2.01,6.13,1.49,4.69,2.91,9.39,4.31,14.1.23.79.49,1.57.72,2.35,1.23,4.16,2.39,8.34,3.56,12.52.37,1.34.78,2.68,1.14,4.02,1.18,4.3,2.29,8.61,3.41,12.92.32,1.23.66,2.46.97,3.7,1.03,4.05,2,8.12,2.98,12.19.36,1.5.75,3,1.1,4.51,1.07,4.53,2.08,9.08,3.08,13.63.23,1.05.48,2.09.71,3.13.86,3.97,1.68,7.96,2.49,11.94.34,1.64.7,3.26,1.02,4.9.88,4.38,1.71,8.78,2.54,13.18.23,1.24.49,2.48.72,3.73,2.02,10.95,3.89,21.95,5.63,32.98.05.34.11.68.17,1.03.76,4.84,1.48,9.69,2.18,14.54.12.85.26,1.7.38,2.55.64,4.45,1.25,8.92,1.85,13.38.17,1.26.35,2.51.52,3.77.54,4.11,1.05,8.22,1.56,12.34.2,1.62.42,3.24.62,4.87,2.08,17.1,3.9,34.27,5.54,51.49.01.13.03.25.04.38.47,4.99.92,9.99,1.37,14.99.07.8.15,1.6.22,2.39.35,4.03.69,8.07,1.02,12.11.15,1.77.3,3.54.45,5.32.21,2.56.4,5.12.61,7.68.26,3.26.52,6.52.77,9.79.12,1.57.23,3.14.35,4.71.32,4.25.64,8.49.94,12.74.14,1.96.27,3.93.41,5.89.68,9.69,1.34,19.39,1.98,29.1h0s0,.04,0,.06c.84-.29,1.67-.56,2.52-.85.08-.03.16-.05.24-.08,6.53-2.24,12.98-4.38,19.37-6.52.04-.01.07-.02.11-.04,3.92-1.31,7.79-2.65,11.66-3.99,1.4-.49,2.82-.97,4.21-1.46,4.82-1.72,9.6-3.49,14.32-5.39,32.75-13.18,64.19-28.47,91.81-49.75t0,0c2.71-2.09,5.38-4.24,8.01-6.45-2.63,2.21-5.3,4.36-8.01,6.45,3.73-2.47,7.45-4.98,11.15-7.56,26.31-18.38,50.49-41.77,77.52-64.49-19.35-90.29-54.58-172.53-101.72-241.88-78.53-115.56-190.17-195.28-316.77-216.62,7.88,9.53,15.42,19.3,22.81,29.19,2.31,3.1,4.68,6.16,6.95,9.29Z"/>
      <path class="cls-33" d="M1558.16,1218.44c-2.36,1.59-4.76,3.12-7.15,4.67-5.19,3.38-10.43,6.69-15.73,9.9-10.07,6.1-20.34,11.94-30.79,17.49l-30.65,72.84h.04c-.22.23-.46.43-.67.65-50.27,53.42-114.51,82.05-182.89,103.6-45.25,14.26-90.92,27.54-135.21,44.41-35.25,13.43-66.66,34.68-96.01,58.87,14.19,9.62,25.67,22.73,33.42,38.26,1.72-1.03,3.36-2,4.81-3.12,33.98-26.31,71.01-47.51,111.69-61.1,43.15-14.41,87.57-25.05,130.51-40,65.5-22.8,125.46-55.35,172.58-107.55,1.28-1.41,2.58-2.78,3.84-4.23,19.15-21.98,34.93-46.12,45.81-75.17l17.38-67.74,2.16-8.43c-2.65,2.02-5.32,4.01-8.01,5.97-4.99,3.64-10.03,7.21-15.15,10.67Z"/>
      <path class="cls-29" d="M1489.09,714.47c3.11,15.49,5.69,31.24,7.85,47.16h0c.22,1.64.51,3.25.72,4.89,2.76,16.77,5.5,33.46,8.25,50.14,1.72,10.44,2.68,20.62,2.89,30.53.35,16.51-1.41,32.25-5.28,47.17-.21.79-.47,1.57-.68,2.36-.51,1.81-1,3.62-1.57,5.4,0,0,0,0,0,0-.19.59-.39,1.18-.58,1.78,0,0,0,0,0,.01-.39,1.17-.82,2.32-1.23,3.48-1.58,4.43-3.34,8.8-5.33,13.07-.5,1.08-1.05,2.14-1.57,3.21-.58,1.17-1.11,2.35-1.72,3.51-.38.73-.82,1.43-1.21,2.15-.65,1.19-1.31,2.37-1.99,3.54-1.06,1.82-2.17,3.61-3.3,5.4-.68,1.07-1.35,2.16-2.06,3.22-1.69,2.52-3.46,5.01-5.32,7.46-.48.64-.99,1.27-1.48,1.9-1.78,2.28-3.64,4.54-5.57,6.76-.81.93-1.67,1.85-2.5,2.77-1.57,1.73-3.18,3.45-4.85,5.14-.93.94-1.87,1.88-2.83,2.81-1.78,1.73-3.62,3.44-5.49,5.12-.88.79-1.73,1.59-2.63,2.36-2.8,2.43-5.68,4.83-8.7,7.17-27.24,21.12-56.79,40.37-87.76,55.39-79.43,38.51-164.82,55.81-252.28,64.29-35,3.39-69.89,5.15-104.65,5.22v254.92c55.01.06,109.98-3.41,164.91-10.33,64.73-8.15,128.22-20.91,190.04-39.94,30.75-9.47,61.09-20.46,90.95-33.27,20.63-8.85,40.82-18.37,60.4-28.78,10.45-5.55,20.71-11.39,30.79-17.49,5.3-3.21,10.55-6.52,15.73-9.9,2.39-1.55,4.79-3.08,7.15-4.67,5.12-3.46,10.16-7.03,15.15-10.67,2.69-1.96,5.35-3.96,8.01-5.97,26.49-20.14,51.03-43.07,72.96-69.68,75.87-92.1,77.88-199.36,5.53-293.51-43.57-56.7-100.38-96.93-162.76-130.14-3.16-1.68-6.67-2.71-9.59-3.88.55,3.31,1.08,6.58,1.62,9.88,0,0,0,0,0,0,0,0,0,0,0,0Z"/>
    </g>
  </g>
</svg>