<?xml version="1.0" encoding="UTF-8"?>
<svg id="Icons" xmlns="http://www.w3.org/2000/svg" viewBox="0 0 2000 2000">
  <defs>
    <style>
      .cls-1 {
        fill: #091f27;
      }

      .cls-2 {
        fill: #38c2f1;
      }

      .cls-3 {
        fill: #3cc2f0;
      }
    </style>
  </defs>
  <g id="Photoshop_Logo">
    <g>
      <path class="cls-2" d="M2000,2000H0V0h2000v2000ZM86.04,1913.45h1829.57V88.6H86.04v1824.84Z"/>
      <path class="cls-1" d="M86.04,88.6v1824.84h1829.57V88.6H86.04Z"/>
    </g>
    <g>
      <path class="cls-3" d="M1202.6,1529.04c61.89.39,112,52.24,111.51,115.35-.5,63.58-51.68,114.69-114.24,114.09-60.56-.58-110.93-53.48-110.12-115.64.83-63.9,50.72-114.2,112.86-113.8ZM1250.6,1643.52c-.05-27.82-21.74-50.39-48.57-50.53-27.29-.15-49.42,22.92-49.19,51.29.22,27.58,22.48,50.05,49.33,49.8,27.14-.25,48.48-22.53,48.43-50.56Z"/>
      <path class="cls-3" d="M697.49,1644.1c-.39-63.48,49.39-114.85,111.49-115.06,61.95-.21,112.38,50.88,112.67,114.13.28,62.37-49.97,114.82-110.51,115.34-62.66.54-113.26-50.39-113.66-114.41ZM858.2,1643.63c0-27.77-21.71-50.43-48.5-50.64-27.26-.21-49.57,22.92-49.36,51.19.2,27.52,22.49,50.08,49.31,49.9,27.12-.18,48.57-22.46,48.56-50.45Z"/>
      <path class="cls-3" d="M1005.21,988.95c-73.71,0-147.41.05-221.12-.04-16.52-.02-28.89-9.31-32.71-23.9-3.49-13.31,1.79-28.38,13.94-35.12,5.88-3.26,13.31-5.01,20.04-5.02,147-.27,293.99-.3,440.99-.09,21.18.03,34.09,12.85,34.08,32.03-.01,19.42-13.83,32.1-35.35,32.12-73.29.06-146.58.02-219.87.02Z"/>
      <path class="cls-3" d="M1006.47,1091.1c65.8,0,131.6-.08,197.41.06,17.31.04,29.4,10.77,32,27.49,2.28,14.67-5.85,29.35-19.78,34.27-4.94,1.74-10.53,2.19-15.82,2.2-129.95.11-259.9.14-389.84.03-19.49-.02-32.3-9.8-34.89-25.6-2.77-16.9,5.68-31.95,21.34-36.86,4.61-1.45,9.76-1.5,14.67-1.51,64.97-.09,129.95-.06,194.92-.06Z"/>
      <path class="cls-3" d="M1467.73,757.41c-8.34.02-16.69.02-25.03.04,17.56-82.08,35.13-164.16,52.68-246.24,3.47-16.21-.73-22.96-16.33-26.46-51.41-11.56-102.79-23.24-154.27-34.43-8.61-1.87-12.25-4.69-12-14.78.81-32.77.34-65.57.29-98.36-.02-15.3-5.63-20.99-20.77-21-197.69-.02-395.39-.02-593.08,0-15.01,0-20.56,5.77-20.58,21.19-.04,33.79-.14,67.59.1,101.38.05,6.38-1.48,9.11-8.2,10.58-52.42,11.46-104.67,23.7-157.1,35.13-8.31,1.81-14.22,5.6-18.8,12.43v12.05c.65,1.45,1.58,2.83,1.91,4.35,6.96,32.21,13.85,64.43,20.74,96.66,10.55,49.29,21.09,98.58,31.64,147.87-6.32,0-12.65,0-18.97,0h-17.09c-6.37-31.84-12.51-62.08-18.43-92.36-4.71-24.11-17.03-41.8-39.49-51.72-44.37-19.61-88.52-39.74-133.06-58.93-6.78-2.92-15.48-3.73-22.72-2.36-13.23,2.51-22.18,14.83-23.02,28.14-.94,14.7,5.86,26.3,20.6,32.95,40.45,18.25,80.92,36.47,121.71,53.91,9.8,4.19,14.44,9.75,16.6,20.55,48.51,243.11,97.36,486.15,146.23,729.18,8.45,42.01,30.38,60.49,71.6,60.5,243.45.04,486.91.03,730.36-.06,5.74,0,11.63-.5,17.19-1.86,13.61-3.34,22.76-15.27,23.3-29.35.57-14.71-7.88-27.69-21.89-31.66-6.64-1.88-13.86-2.22-20.82-2.22-240.14-.11-480.28-.09-720.42-.09h-16.24c-6.09-30.42-11.95-59.66-18.11-90.39h17.29c246.35,0,492.7,0,739.05,0,4.97,0,9.95.16,14.9-.12,33.33-1.93,56.18-21.35,62.88-54.5,22.7-112.38,45.04-224.84,67.71-337.23,6.33-31.41,13.33-62.68,20.02-94.02v-28.03c-13.64-38.87-41.71-50.84-80.36-50.75ZM1312.95,509.54c.5-8.63.12-17.3.12-27.11,49.42,11.1,97.83,21.97,147.4,33.1-17.28,80.72-34.53,161.33-51.8,241.98-11.39.02-22.79.04-34.18.06,13.84-64.48,27.68-128.96,41.53-193.44,3.51-16.33-.88-23.46-17.06-27.17-26-5.97-51.95-12.14-78.04-17.66-6-1.27-8.34-3.38-7.98-9.75ZM1313.39,757.66v-205.01c22.54,5.03,44.46,9.92,67.54,15.07-13.62,63.61-27.15,126.82-40.66,189.89-8.96.01-17.92.03-26.88.04ZM1279.11,350.99v406.73c-10.9.01-21.8.04-32.7.05,0-116.37,0-232.74,0-349.12,0-19-5.1-24.13-23.96-24.13-151.06,0-302.12,0-453.18,0-18.89,0-23.99,5.13-23.99,24.11,0,116.41,0,232.83,0,349.24-10.9,0-21.8,0-32.7,0v-406.87h566.55ZM973.51,691.72c-10.03-8.55-19.93-17.27-30.02-25.74-11.74-9.85-19.01-9.48-29.69,1.45-29.41,30.12-58.77,60.29-88.13,90.45-15.52,0-31.03,0-46.55,0v-338.39h433.76v248.07c-2.95-2.59-5.11-4.26-7.01-6.2-15.26-15.58-30.35-31.34-45.73-46.8-9.94-9.99-18.03-9.82-27.81.23-37.34,38.35-74.62,76.75-112.78,116.02-15.63-13.26-30.85-26.15-46.04-39.1ZM998.85,757.9c-41.05,0-82.11,0-123.16-.02,18.63-19.03,37.3-38.1,56.11-57.31,22.07,18.87,44.41,37.97,67.05,57.33ZM1148.51,648.42c5.99,6.9,12.46,14.76,19.36,22.22,7.85,8.48,15.21,17.79,24.31,24.62,18.29,13.72,22.8,31.43,21.38,53.71-.19,2.94-.33,5.89-.45,8.84-54.04.05-108.08.06-162.12.07-1.76-1.5-3.52-3.01-5.28-4.51,33.89-34.6,67.34-68.75,102.8-104.95ZM651.47,757.85c-13.51-63.09-27.05-126.3-40.67-189.9,23.15-5.27,44.63-10.16,67.03-15.27v205.17c-8.79,0-17.57,0-26.36,0ZM531.23,515.64c49.37-11.12,97.52-21.97,147.32-33.18,0,10.99.3,21.14-.27,31.24-.1,1.85-3.48,4.56-5.74,5.08-26.92,6.31-53.89,12.38-80.9,18.29-14.06,3.08-19.48,10.67-16.38,25.2,13.91,65.2,27.92,130.39,41.92,195.57-11.37,0-22.74,0-34.11,0-17.26-80.63-34.54-161.31-51.86-242.2ZM1398.11,1257.01h-14.35c-252.1,0-504.21-.04-756.31.17-9.89,0-14.82-1.26-17.2-13.33-27.15-137.79-55.16-275.4-82.89-413.07-.41-2.03-.23-4.18-.36-7.05h958.08c-28.95,144.23-57.78,287.88-86.97,433.29Z"/>
      <path class="cls-3" d="M1012.86,624.41c45.77.36,83.02-38.01,82.97-85.48-.04-46.7-38.05-85.97-83.18-85.95-46.13.02-83.46,38.73-83.39,86.46.07,47.1,36.97,84.6,83.6,84.98ZM1012.47,487.23c27.15.03,49.8,23.01,50.01,50.74.22,28.97-21.43,51.81-49.38,52.08-27.59.26-50.21-22.05-50.59-49.9-.39-28.99,22.23-52.95,49.96-52.92Z"/>
    </g>
  </g>
</svg>