<?xml version="1.0" encoding="UTF-8"?>
<svg id="Icons" xmlns="http://www.w3.org/2000/svg" viewBox="0 0 2000 2000">
  <defs>
    <style>
      .cls-1 {
        fill: #fff;
      }

      .cls-2 {
        fill: #74b566;
      }

      .cls-3 {
        fill: #414042;
      }
    </style>
  </defs>
  <g id="Spotify_Logo">
    <circle class="cls-2" cx="1000" cy="1000" r="1000"/>
    <g>
      <path class="cls-3" d="M1049.48,1000.41c0,105.24.03,210.48-.03,315.72-.01,24.67-19.09,40.81-41.05,34.26-5.91-1.76-11.54-5.72-16.3-9.84-67.51-58.28-134.96-116.62-202.08-175.36-8.24-7.21-16.38-10.07-27.23-9.99-58.63.47-117.26.25-175.89.21-24.45-.02-36.93-12.36-36.96-36.95-.1-79.78-.1-159.56,0-239.34.03-24.98,12.76-37.54,37.66-37.56,61.34-.04,122.68-.14,184.02.15,7.32.03,12.67-2.06,18.13-6.81,67.27-58.55,134.76-116.86,202.07-175.36,8.85-7.69,18.27-13.03,30.35-10.94,16.77,2.91,27.24,15.9,27.27,34.04.09,60.09.04,120.18.04,180.27,0,45.83,0,91.66,0,137.49Z"/>
      <path class="cls-3" d="M1450.14,1006.31c-1.5,118.91-39.8,230.69-116.69,328.98-12.44,15.9-31.77,19.22-46.56,8.09-15.24-11.47-17.56-31.28-4.71-47.72,48.94-62.6,81.73-132.57,95.15-211.07,23.03-134.7-6.34-257.28-86.55-367.72-2.79-3.84-5.81-7.51-8.65-11.33-12.42-16.69-10.47-36.31,4.7-47.79,14.66-11.09,34.07-7.78,46.58,8.06,46.2,58.52,79.07,123.77,98.35,195.86,12.17,45.48,17.95,91.82,18.37,144.63Z"/>
      <path class="cls-3" d="M1330.21,1014.25c-.74,76.49-26.72,158.9-79.04,232.85-13.26,18.74-31.85,23.46-47.96,12.19-16.07-11.25-18.3-30.84-5.27-49.28,46.32-65.57,69.09-138.46,67.14-218.78-1.77-72.54-24.13-138.41-65.44-197.97-3.98-5.74-7.96-12.14-9.47-18.8-3.46-15.25,4.77-29.8,18.62-35.76,14.51-6.23,29.57-2.1,39.56,11.46,24.1,32.68,42.99,68.22,56.71,106.44,16.65,46.38,25.11,94.26,25.15,157.64Z"/>
      <path class="cls-3" d="M1203.42,991.19c-.65,65.96-15.78,118.35-46.71,165.96-8.2,12.63-21.14,17.62-35.16,14.37-12.72-2.95-23.58-13.36-23.99-26.93-.26-8.52,2.62-18.17,6.99-25.6,18.19-30.9,29.85-63.65,32.86-99.5,4.15-49.37-7.49-94.71-32.77-137.11-4.42-7.41-7.3-17.06-7.13-25.59.27-13.39,11.39-24.34,23.74-27.27,13.81-3.27,27.09,1.79,35.32,14.29,20.37,30.93,34.37,64.63,41.02,101.07,3.34,18.29,4.68,36.95,5.81,46.32Z"/>
    </g>
    <g>
      <rect class="cls-1" x="510.15" y="1491.4" width="42.53" height="29.79"/>
      <rect class="cls-1" x="559.48" y="1491.4" width="42.53" height="29.79"/>
      <rect class="cls-1" x="608.8" y="1491.4" width="42.53" height="29.79"/>
      <rect class="cls-1" x="658.12" y="1491.4" width="42.53" height="29.79"/>
      <rect class="cls-1" x="707.45" y="1491.4" width="42.53" height="29.79"/>
      <rect class="cls-1" x="756.77" y="1491.4" width="42.53" height="29.79"/>
      <rect class="cls-1" x="806.1" y="1491.4" width="42.53" height="29.79"/>
      <rect class="cls-1" x="855.42" y="1491.4" width="42.53" height="29.79"/>
      <rect class="cls-1" x="904.75" y="1491.4" width="42.53" height="29.79"/>
      <rect class="cls-1" x="954.07" y="1491.4" width="42.53" height="29.79"/>
      <rect class="cls-1" x="1003.4" y="1491.4" width="42.53" height="29.79"/>
      <rect class="cls-1" x="1052.72" y="1491.4" width="42.53" height="29.79"/>
      <rect class="cls-1" x="1102.05" y="1491.4" width="42.53" height="29.79"/>
      <path class="cls-3" d="M1489.85,1485.78H503.35v41.03h993.29v-41.03h-6.8ZM552.68,1521.18h-42.53v-29.79h42.53v29.79ZM602,1521.18h-42.53v-29.79h42.53v29.79ZM651.33,1521.18h-42.53v-29.79h42.53v29.79ZM700.65,1521.18h-42.53v-29.79h42.53v29.79ZM749.98,1521.18h-42.53v-29.79h42.53v29.79ZM799.3,1521.18h-42.53v-29.79h42.53v29.79ZM848.63,1521.18h-42.53v-29.79h42.53v29.79ZM897.95,1521.18h-42.53v-29.79h42.53v29.79ZM947.28,1521.18h-42.53v-29.79h42.53v29.79ZM996.6,1521.18h-42.53v-29.79h42.53v29.79ZM1045.93,1521.18h-42.53v-29.79h42.53v29.79ZM1095.25,1521.18h-42.53v-29.79h42.53v29.79ZM1144.58,1521.18h-42.53v-29.79h42.53v29.79Z"/>
    </g>
  </g>
</svg>