<?xml version="1.0" encoding="UTF-8"?>
<svg id="Icons" xmlns="http://www.w3.org/2000/svg" xmlns:xlink="http://www.w3.org/1999/xlink" viewBox="0 0 2000 2000">
  <defs>
    <style>
      .cls-1 {
        fill: #fff;
      }

      .cls-2 {
        fill: url(#linear-gradient);
      }
    </style>
    <linearGradient id="linear-gradient" x1="1000" y1="2000" x2="1000" y2="0" gradientUnits="userSpaceOnUse">
      <stop offset="0" stop-color="#1083b5"/>
      <stop offset="1" stop-color="#0a172c"/>
    </linearGradient>
  </defs>
  <g id="Steam_Logo">
    <circle class="cls-2" cx="1000" cy="1000" r="1000"/>
    <path class="cls-1" d="M1731.35,843.96c15.06-70.42,13.9-140.33-4.52-210.25-4.15-15.75-4.55-33.64-2-49.8,8.53-54.16-16.52-94.43-68.95-109.86-12.63-3.72-25.77-10.5-35.2-19.51-54.46-52.07-117.66-88.48-190.57-106.57-18.79-4.66-33.19-11.89-47.3-25.09-31.23-29.22-79.33-35.63-108.8-8.4-28.51,26.34-61.96,36.33-95.8,49.13-50.98,19.27-96.56,47.91-135.03,86.62-18.11,18.22-36.32,32.84-62,41.35-45.39,15.04-64.93,59.07-54.81,105.56,3.48,15.99,5.28,34.24,1.15,49.67-19.99,74.79-16,148.42,4.05,222.33,3.45,12.72,4.36,27.43,1.73,40.26-11.24,55,10.35,93.06,64.04,112.34,14.1,5.06,28.64,12.37,39.49,22.41,52.94,49,112.58,85.4,182.8,103.59,21.76,5.64,41.28,13.3,58.98,29.78,14.24,13.26,36.62,17.79,55.39,26.19,28.66-3.05,48.28-15.93,67.17-32.07,10.36-8.86,21.85-18.81,34.46-22.23,77.41-21,142.48-61.29,197.13-119.59,7.3-7.79,17.06-15.07,27.05-18.24,58.93-18.69,83.47-53.31,70.14-110.65-4.78-20.56-2.67-38.03,1.38-56.97ZM1402.61,435.52c59.33,12.09,108.61,39.81,154.58,86.05-6.78,13.58-11.26,30.51-21.7,42.04-42.61,47.02-99.69,71.6-160.48,103.68-2.13-83.18-11.17-159.01,27.6-231.77ZM1239.72,438.53c27.1,12.49,35.84,36.23,38.46,59.49,5.99,53.26,11.44,107.02-1.04,166.45-70.46-37.08-139.27-67.67-184.38-136.5,40.86-43.79,90.06-73.68,146.97-89.44ZM1021.53,842.14c-20.71-67.62-20.9-123.37-.35-179.63,83.95-9.36,141.78,46.12,212.97,86.48-70.06,44.03-131.64,90.46-212.61,93.15ZM1256.98,1062.03c-61.74-7.86-108.8-41.96-157.43-83.78,29.54-84.66,111.93-101.9,179.17-149.22,8.3,84.35,11.38,158.45-21.74,233ZM1330.03,798.16c-29.27.38-51.12-20.92-50.68-49.42.42-28,23.73-51.03,51.16-50.55,23.56.41,48.68,25.17,49.87,49.15,1.34,26.95-21.95,50.45-50.36,50.82ZM1416.34,1060.83c-21.46-12.62-30.24-33.13-35.78-57.49-12.42-54.63-6.2-109.24-6.47-170.21,74.49,33.61,141.53,67.11,188.93,134.16-37.44,45.27-78.31,71.16-146.69,93.55ZM1642.92,826.32c-19.54,16.15-40.47,13.73-63.31,6.59-40.66-12.73-111.25-51.46-148.94-84.26,55.43-46.65,115.34-74.8,204.83-95.09,22.18,58.37,21.91,115.06,7.42,172.77Z"/>
    <path class="cls-1" d="M1210.49,1181.25c-76.14-19.72-140.81-59.2-198.22-112.33-11.77-10.89-27.53-18.81-42.82-24.3-58.22-20.91-81.64-62.18-69.45-121.82,2.84-13.91,1.86-29.87-1.88-43.66-3.5-12.89-6.53-25.76-9.09-38.64-34.35,49.84-68.69,99.68-103.02,149.53-25.67,37.27-51.32,74.55-77,111.81-1.86,2.7-3.85,5.32-5.8,8-21.41-.15-42.43,1.02-63.27,5.06-33.4,6.47-64.72,18.26-93.43,36.5-5.47,3.48-9.71,3.64-15.43,1.27-173.7-71.71-347.46-143.28-521.2-214.89-2.46-1.01-4.86-2.18-7.73-3.5-1.41,21.72-2.13,43.62-2.13,65.7,0,101.85,15.24,200.14,43.55,292.73,32.83,12.64,63.8,26.02,94.97,38.84,31.28,12.86,62.31,26.32,93.57,39.22,31.6,13.04,63.38,25.63,95.01,38.59,31.43,12.88,62.77,25.98,94.05,38.94,6.72,29,17.04,56.04,32.02,81.23,11.13,18.71,23.12,37.08,38.57,52.27,20.22,19.89,42.88,37.01,68.05,50.6,114.24,61.67,257.67,35.38,341.75-63.04,38.68-45.28,60.99-97.64,66.1-157.12.71-8.22,1.36-16.49,1.24-24.73-.08-5.24,1.66-8.32,5.94-11.34,30.23-21.35,60.24-43.01,90.33-64.55,37.46-26.82,74.93-53.62,112.39-80.43,14.51-10.38,29.01-20.78,43.55-31.12,1.85-1.31,3.91-2.31,5.88-3.46,3.22-2.32,6.43-4.63,9.65-6.95-8.37-3.41-17.06-6.08-26.12-8.43ZM903.38,1416.97c-5.92,38.93-20.05,74.68-45.27,105.53-24.38,29.82-54.39,51.9-90.44,65.51-114.27,43.13-227.62-18.22-267.04-106.28,3.81,1.38,6.79,2.33,9.67,3.52,37.51,15.52,75,31.09,112.5,46.63,77.59,32.14,165.33-1.77,201.41-75.31,41.56-84.69,1.37-180.61-77.97-214.53-39.43-16.86-79.21-32.9-118.83-49.34-3.31-1.37-6.55-2.92-10.98-4.9,97.86-38.65,225.2,2.94,272.76,118.49,14.64,35.57,19.97,72.63,14.18,110.69Z"/>
    <path class="cls-1" d="M1329.89,780.1c-16.28-.11-30.45-12.83-30.41-30.44.03-17.67,14.54-30.51,30.45-30.5,15.48.01,30.23,12.28,30.36,30.48.11,16.35-13.15,30.42-30.39,30.46Z"/>
  </g>
</svg>